<?xml version="1.0" encoding="UTF-8"?>
<!DOCTYPE svg PUBLIC "-//W3C//DTD SVG 1.1//EN" "http://www.w3.org/Graphics/SVG/1.1/DTD/svg11.dtd">
<svg width="192mm" height="111mm" viewBox="0 0 19200 11100" version="1.1" baseProfile="tiny" xmlns="http://www.w3.org/2000/svg" stroke-width="28.222" stroke-linejoin="round" xml:space="preserve">
 <path fill="rgb(255,255,255)" stroke="none" d="M 9601,11109 L 0,11109 0,0 19201,0 19201,11109 9601,11109 Z"/>
 <path fill="none" stroke="rgb(179,179,179)" stroke-linejoin="round" d="M 9180,9508 L 2202,9508 2202,1385 16157,1385 16157,9508 9180,9508 Z"/>
 <path fill="none" stroke="rgb(179,179,179)" stroke-linejoin="round" d="M 16157,9507 L 2202,9507"/>
 <path fill="none" stroke="rgb(179,179,179)" stroke-linejoin="round" d="M 16157,8604 L 2202,8604"/>
 <path fill="none" stroke="rgb(179,179,179)" stroke-linejoin="round" d="M 16157,7701 L 2202,7701"/>
 <path fill="none" stroke="rgb(179,179,179)" stroke-linejoin="round" d="M 16157,6799 L 2202,6799"/>
 <path fill="none" stroke="rgb(179,179,179)" stroke-linejoin="round" d="M 16157,5896 L 2202,5896"/>
 <path fill="none" stroke="rgb(179,179,179)" stroke-linejoin="round" d="M 16157,4994 L 2202,4994"/>
 <path fill="none" stroke="rgb(179,179,179)" stroke-linejoin="round" d="M 16157,4092 L 2202,4092"/>
 <path fill="none" stroke="rgb(179,179,179)" stroke-linejoin="round" d="M 16157,3189 L 2202,3189"/>
 <path fill="none" stroke="rgb(179,179,179)" stroke-linejoin="round" d="M 16157,2286 L 2202,2286"/>
 <path fill="none" stroke="rgb(179,179,179)" stroke-linejoin="round" d="M 16157,1384 L 2202,1384"/>
 <path fill="none" stroke="rgb(179,179,179)" stroke-linejoin="round" d="M 2202,9657 L 2202,9507"/>
 <path fill="none" stroke="rgb(179,179,179)" stroke-linejoin="round" d="M 2202,9657 L 2202,9507"/>
 <path fill="none" stroke="rgb(179,179,179)" stroke-linejoin="round" d="M 16157,9657 L 16157,9507"/>
 <path fill="none" stroke="rgb(179,179,179)" stroke-linejoin="round" d="M 16157,9657 L 16157,9507"/>
 <path fill="none" stroke="rgb(179,179,179)" stroke-linejoin="round" d="M 2202,9507 L 16157,9507"/>
 <path fill="none" stroke="rgb(179,179,179)" stroke-linejoin="round" d="M 2052,9507 L 2202,9507"/>
 <path fill="none" stroke="rgb(179,179,179)" stroke-linejoin="round" d="M 2052,9507 L 2202,9507"/>
 <path fill="none" stroke="rgb(179,179,179)" stroke-linejoin="round" d="M 2052,8604 L 2202,8604"/>
 <path fill="none" stroke="rgb(179,179,179)" stroke-linejoin="round" d="M 2052,8604 L 2202,8604"/>
 <path fill="none" stroke="rgb(179,179,179)" stroke-linejoin="round" d="M 2052,7701 L 2202,7701"/>
 <path fill="none" stroke="rgb(179,179,179)" stroke-linejoin="round" d="M 2052,7701 L 2202,7701"/>
 <path fill="none" stroke="rgb(179,179,179)" stroke-linejoin="round" d="M 2052,6799 L 2202,6799"/>
 <path fill="none" stroke="rgb(179,179,179)" stroke-linejoin="round" d="M 2052,6799 L 2202,6799"/>
 <path fill="none" stroke="rgb(179,179,179)" stroke-linejoin="round" d="M 2052,5896 L 2202,5896"/>
 <path fill="none" stroke="rgb(179,179,179)" stroke-linejoin="round" d="M 2052,5896 L 2202,5896"/>
 <path fill="none" stroke="rgb(179,179,179)" stroke-linejoin="round" d="M 2052,4994 L 2202,4994"/>
 <path fill="none" stroke="rgb(179,179,179)" stroke-linejoin="round" d="M 2052,4994 L 2202,4994"/>
 <path fill="none" stroke="rgb(179,179,179)" stroke-linejoin="round" d="M 2052,4091 L 2202,4091"/>
 <path fill="none" stroke="rgb(179,179,179)" stroke-linejoin="round" d="M 2052,4091 L 2202,4091"/>
 <path fill="none" stroke="rgb(179,179,179)" stroke-linejoin="round" d="M 2052,3189 L 2202,3189"/>
 <path fill="none" stroke="rgb(179,179,179)" stroke-linejoin="round" d="M 2052,3189 L 2202,3189"/>
 <path fill="none" stroke="rgb(179,179,179)" stroke-linejoin="round" d="M 2052,2286 L 2202,2286"/>
 <path fill="none" stroke="rgb(179,179,179)" stroke-linejoin="round" d="M 2052,2286 L 2202,2286"/>
 <path fill="none" stroke="rgb(179,179,179)" stroke-linejoin="round" d="M 2052,1384 L 2202,1384"/>
 <path fill="none" stroke="rgb(179,179,179)" stroke-linejoin="round" d="M 2052,1384 L 2202,1384"/>
 <path fill="none" stroke="rgb(179,179,179)" stroke-linejoin="round" d="M 2202,9507 L 2202,1384"/>
 <path fill="rgb(0,69,134)" stroke="none" d="M 4528,9507 L 9180,9507 9180,6799 4528,6799 4528,9507 Z"/>
 <path fill="rgb(255,66,14)" stroke="none" d="M 9180,9507 L 13831,9507 13831,2286 9180,2286 9180,9507 Z"/>
 <text class="TextShape"><tspan class="TextParagraph" font-family="Liberation Sans, sans-serif" font-size="353px" font-weight="400"><tspan class="TextPosition" x="1396" y="9628"/><tspan class="TextPosition" x="1396" y="9628"><tspan fill="rgb(0,0,0)" stroke="none">480</tspan></tspan></tspan></text>
 <text class="TextShape"><tspan class="TextParagraph" font-family="Liberation Sans, sans-serif" font-size="353px" font-weight="400"><tspan class="TextPosition" x="1396" y="8725"/><tspan class="TextPosition" x="1396" y="8725"><tspan fill="rgb(0,0,0)" stroke="none">485</tspan></tspan></tspan></text>
 <text class="TextShape"><tspan class="TextParagraph" font-family="Liberation Sans, sans-serif" font-size="353px" font-weight="400"><tspan class="TextPosition" x="1396" y="7822"/><tspan class="TextPosition" x="1396" y="7822"><tspan fill="rgb(0,0,0)" stroke="none">490</tspan></tspan></tspan></text>
 <text class="TextShape"><tspan class="TextParagraph" font-family="Liberation Sans, sans-serif" font-size="353px" font-weight="400"><tspan class="TextPosition" x="1396" y="6920"/><tspan class="TextPosition" x="1396" y="6920"><tspan fill="rgb(0,0,0)" stroke="none">495</tspan></tspan></tspan></text>
 <text class="TextShape"><tspan class="TextParagraph" font-family="Liberation Sans, sans-serif" font-size="353px" font-weight="400"><tspan class="TextPosition" x="1396" y="6017"/><tspan class="TextPosition" x="1396" y="6017"><tspan fill="rgb(0,0,0)" stroke="none">500</tspan></tspan></tspan></text>
 <text class="TextShape"><tspan class="TextParagraph" font-family="Liberation Sans, sans-serif" font-size="353px" font-weight="400"><tspan class="TextPosition" x="1396" y="5114"/><tspan class="TextPosition" x="1396" y="5114"><tspan fill="rgb(0,0,0)" stroke="none">505</tspan></tspan></tspan></text>
 <text class="TextShape"><tspan class="TextParagraph" font-family="Liberation Sans, sans-serif" font-size="353px" font-weight="400"><tspan class="TextPosition" x="1396" y="4211"/><tspan class="TextPosition" x="1396" y="4211"><tspan fill="rgb(0,0,0)" stroke="none">510</tspan></tspan></tspan></text>
 <text class="TextShape"><tspan class="TextParagraph" font-family="Liberation Sans, sans-serif" font-size="353px" font-weight="400"><tspan class="TextPosition" x="1396" y="3309"/><tspan class="TextPosition" x="1396" y="3309"><tspan fill="rgb(0,0,0)" stroke="none">515</tspan></tspan></tspan></text>
 <text class="TextShape"><tspan class="TextParagraph" font-family="Liberation Sans, sans-serif" font-size="353px" font-weight="400"><tspan class="TextPosition" x="1396" y="2406"/><tspan class="TextPosition" x="1396" y="2406"><tspan fill="rgb(0,0,0)" stroke="none">520</tspan></tspan></tspan></text>
 <text class="TextShape"><tspan class="TextParagraph" font-family="Liberation Sans, sans-serif" font-size="353px" font-weight="400"><tspan class="TextPosition" x="1396" y="1504"/><tspan class="TextPosition" x="1396" y="1504"><tspan fill="rgb(0,0,0)" stroke="none">525</tspan></tspan></tspan></text>
 <text class="TextShape"><tspan class="TextParagraph" font-family="Liberation Sans, sans-serif" font-size="459px" font-weight="400"><tspan class="TextPosition" x="6995" y="919"/><tspan class="TextPosition" x="6995" y="919"><tspan fill="rgb(0,0,0)" stroke="none"> </tspan></tspan><tspan class="TextPosition" x="7127" y="919"><tspan fill="rgb(0,0,0)" stroke="none">Argumentative Sentences</tspan></tspan></tspan></text>
 <path fill="rgb(0,69,134)" stroke="none" d="M 16763,5411 L 16657,5411 16657,5200 16868,5200 16868,5411 16763,5411 Z"/>
 <path fill="rgb(255,66,14)" stroke="none" d="M 16763,5908 L 16657,5908 16657,5697 16868,5697 16868,5908 16763,5908 Z"/>
 <text class="TextShape"><tspan class="TextParagraph" font-family="Liberation Sans, sans-serif" font-size="353px" font-weight="400"><tspan class="TextPosition" x="16968" y="5425"/><tspan class="TextPosition" x="16968" y="5425"><tspan fill="rgb(0,0,0)" stroke="none">Class “NO”</tspan></tspan></tspan></text>
 <text class="TextShape"><tspan class="TextParagraph" font-family="Liberation Sans, sans-serif" font-size="353px" font-weight="400"><tspan class="TextPosition" x="16968" y="5922"/><tspan class="TextPosition" x="16968" y="5922"><tspan fill="rgb(0,0,0)" stroke="none">Class “YES”</tspan></tspan></tspan></text>
 <text class="TextShape"><tspan class="TextParagraph" font-family="Liberation Sans, sans-serif" font-size="318px" font-weight="400"><tspan class="TextPosition" x="8366" y="10515"/><tspan class="TextPosition" x="8366" y="10515"><tspan fill="rgb(0,0,0)" stroke="none">Class</tspan></tspan></tspan></text>
 <text class="TextShape"><tspan class="TextParagraph" font-family="Liberation Sans, sans-serif" font-size="318px" font-weight="400"><tspan class="TextPosition" x="837" y="6876" transform="translate(837,6876) rotate(-90) translate(-837,-6876)"/><tspan class="TextPosition" x="837" y="6876" transform="translate(837,6876) rotate(-90) translate(-837,-6876)"><tspan fill="rgb(0,0,0)" stroke="none">No. of Sentences</tspan></tspan></tspan></text>
</svg>