<?xml version="1.0" encoding="UTF-8"?>
<!DOCTYPE svg PUBLIC "-//W3C//DTD SVG 1.1//EN" "http://www.w3.org/Graphics/SVG/1.1/DTD/svg11.dtd">
<svg width="198mm" height="107mm" viewBox="0 0 19800 10700" version="1.1" baseProfile="tiny" xmlns="http://www.w3.org/2000/svg" stroke-width="28.222" stroke-linejoin="round" xml:space="preserve">
 <path fill="rgb(255,255,255)" stroke="none" d="M 9885,10704 L 0,10704 0,0 19769,0 19769,10704 9885,10704 Z"/>
 <path fill="none" stroke="rgb(179,179,179)" stroke-linejoin="round" d="M 9464,8862 L 2213,8862 2213,1568 16714,1568 16714,8862 9464,8862 Z"/>
 <path fill="none" stroke="rgb(179,179,179)" stroke-linejoin="round" d="M 16714,8861 L 2213,8861"/>
 <path fill="none" stroke="rgb(179,179,179)" stroke-linejoin="round" d="M 16714,8050 L 2213,8050"/>
 <path fill="none" stroke="rgb(179,179,179)" stroke-linejoin="round" d="M 16714,7239 L 2213,7239"/>
 <path fill="none" stroke="rgb(179,179,179)" stroke-linejoin="round" d="M 16714,6429 L 2213,6429"/>
 <path fill="none" stroke="rgb(179,179,179)" stroke-linejoin="round" d="M 16714,5618 L 2213,5618"/>
 <path fill="none" stroke="rgb(179,179,179)" stroke-linejoin="round" d="M 16714,4809 L 2213,4809"/>
 <path fill="none" stroke="rgb(179,179,179)" stroke-linejoin="round" d="M 16714,3998 L 2213,3998"/>
 <path fill="none" stroke="rgb(179,179,179)" stroke-linejoin="round" d="M 16714,3188 L 2213,3188"/>
 <path fill="none" stroke="rgb(179,179,179)" stroke-linejoin="round" d="M 16714,2377 L 2213,2377"/>
 <path fill="none" stroke="rgb(179,179,179)" stroke-linejoin="round" d="M 16714,1566 L 2213,1566"/>
 <path fill="none" stroke="rgb(179,179,179)" stroke-linejoin="round" d="M 2213,9011 L 2213,8861"/>
 <path fill="none" stroke="rgb(179,179,179)" stroke-linejoin="round" d="M 2213,9011 L 2213,8861"/>
 <path fill="none" stroke="rgb(179,179,179)" stroke-linejoin="round" d="M 3119,9011 L 3119,8861"/>
 <path fill="none" stroke="rgb(179,179,179)" stroke-linejoin="round" d="M 3119,9011 L 3119,8861"/>
 <path fill="none" stroke="rgb(179,179,179)" stroke-linejoin="round" d="M 4025,9011 L 4025,8861"/>
 <path fill="none" stroke="rgb(179,179,179)" stroke-linejoin="round" d="M 4025,9011 L 4025,8861"/>
 <path fill="none" stroke="rgb(179,179,179)" stroke-linejoin="round" d="M 4932,9011 L 4932,8861"/>
 <path fill="none" stroke="rgb(179,179,179)" stroke-linejoin="round" d="M 4932,9011 L 4932,8861"/>
 <path fill="none" stroke="rgb(179,179,179)" stroke-linejoin="round" d="M 5838,9011 L 5838,8861"/>
 <path fill="none" stroke="rgb(179,179,179)" stroke-linejoin="round" d="M 5838,9011 L 5838,8861"/>
 <path fill="none" stroke="rgb(179,179,179)" stroke-linejoin="round" d="M 6744,9011 L 6744,8861"/>
 <path fill="none" stroke="rgb(179,179,179)" stroke-linejoin="round" d="M 6744,9011 L 6744,8861"/>
 <path fill="none" stroke="rgb(179,179,179)" stroke-linejoin="round" d="M 7651,9011 L 7651,8861"/>
 <path fill="none" stroke="rgb(179,179,179)" stroke-linejoin="round" d="M 7651,9011 L 7651,8861"/>
 <path fill="none" stroke="rgb(179,179,179)" stroke-linejoin="round" d="M 8557,9011 L 8557,8861"/>
 <path fill="none" stroke="rgb(179,179,179)" stroke-linejoin="round" d="M 8557,9011 L 8557,8861"/>
 <path fill="none" stroke="rgb(179,179,179)" stroke-linejoin="round" d="M 9464,9011 L 9464,8861"/>
 <path fill="none" stroke="rgb(179,179,179)" stroke-linejoin="round" d="M 9464,9011 L 9464,8861"/>
 <path fill="none" stroke="rgb(179,179,179)" stroke-linejoin="round" d="M 10369,9011 L 10369,8861"/>
 <path fill="none" stroke="rgb(179,179,179)" stroke-linejoin="round" d="M 10369,9011 L 10369,8861"/>
 <path fill="none" stroke="rgb(179,179,179)" stroke-linejoin="round" d="M 11275,9011 L 11275,8861"/>
 <path fill="none" stroke="rgb(179,179,179)" stroke-linejoin="round" d="M 11275,9011 L 11275,8861"/>
 <path fill="none" stroke="rgb(179,179,179)" stroke-linejoin="round" d="M 12182,9011 L 12182,8861"/>
 <path fill="none" stroke="rgb(179,179,179)" stroke-linejoin="round" d="M 12182,9011 L 12182,8861"/>
 <path fill="none" stroke="rgb(179,179,179)" stroke-linejoin="round" d="M 13088,9011 L 13088,8861"/>
 <path fill="none" stroke="rgb(179,179,179)" stroke-linejoin="round" d="M 13088,9011 L 13088,8861"/>
 <path fill="none" stroke="rgb(179,179,179)" stroke-linejoin="round" d="M 13994,9011 L 13994,8861"/>
 <path fill="none" stroke="rgb(179,179,179)" stroke-linejoin="round" d="M 13994,9011 L 13994,8861"/>
 <path fill="none" stroke="rgb(179,179,179)" stroke-linejoin="round" d="M 14901,9011 L 14901,8861"/>
 <path fill="none" stroke="rgb(179,179,179)" stroke-linejoin="round" d="M 14901,9011 L 14901,8861"/>
 <path fill="none" stroke="rgb(179,179,179)" stroke-linejoin="round" d="M 15807,9011 L 15807,8861"/>
 <path fill="none" stroke="rgb(179,179,179)" stroke-linejoin="round" d="M 15807,9011 L 15807,8861"/>
 <path fill="none" stroke="rgb(179,179,179)" stroke-linejoin="round" d="M 16714,9011 L 16714,8861"/>
 <path fill="none" stroke="rgb(179,179,179)" stroke-linejoin="round" d="M 16714,9011 L 16714,8861"/>
 <path fill="none" stroke="rgb(179,179,179)" stroke-linejoin="round" d="M 2213,8861 L 16714,8861"/>
 <path fill="none" stroke="rgb(179,179,179)" stroke-linejoin="round" d="M 2063,8861 L 2213,8861"/>
 <path fill="none" stroke="rgb(179,179,179)" stroke-linejoin="round" d="M 2063,8861 L 2213,8861"/>
 <path fill="none" stroke="rgb(179,179,179)" stroke-linejoin="round" d="M 2063,8050 L 2213,8050"/>
 <path fill="none" stroke="rgb(179,179,179)" stroke-linejoin="round" d="M 2063,8050 L 2213,8050"/>
 <path fill="none" stroke="rgb(179,179,179)" stroke-linejoin="round" d="M 2063,7239 L 2213,7239"/>
 <path fill="none" stroke="rgb(179,179,179)" stroke-linejoin="round" d="M 2063,7239 L 2213,7239"/>
 <path fill="none" stroke="rgb(179,179,179)" stroke-linejoin="round" d="M 2063,6429 L 2213,6429"/>
 <path fill="none" stroke="rgb(179,179,179)" stroke-linejoin="round" d="M 2063,6429 L 2213,6429"/>
 <path fill="none" stroke="rgb(179,179,179)" stroke-linejoin="round" d="M 2063,5618 L 2213,5618"/>
 <path fill="none" stroke="rgb(179,179,179)" stroke-linejoin="round" d="M 2063,5618 L 2213,5618"/>
 <path fill="none" stroke="rgb(179,179,179)" stroke-linejoin="round" d="M 2063,4809 L 2213,4809"/>
 <path fill="none" stroke="rgb(179,179,179)" stroke-linejoin="round" d="M 2063,4809 L 2213,4809"/>
 <path fill="none" stroke="rgb(179,179,179)" stroke-linejoin="round" d="M 2063,3998 L 2213,3998"/>
 <path fill="none" stroke="rgb(179,179,179)" stroke-linejoin="round" d="M 2063,3998 L 2213,3998"/>
 <path fill="none" stroke="rgb(179,179,179)" stroke-linejoin="round" d="M 2063,3188 L 2213,3188"/>
 <path fill="none" stroke="rgb(179,179,179)" stroke-linejoin="round" d="M 2063,3188 L 2213,3188"/>
 <path fill="none" stroke="rgb(179,179,179)" stroke-linejoin="round" d="M 2063,2377 L 2213,2377"/>
 <path fill="none" stroke="rgb(179,179,179)" stroke-linejoin="round" d="M 2063,2377 L 2213,2377"/>
 <path fill="none" stroke="rgb(179,179,179)" stroke-linejoin="round" d="M 2063,1566 L 2213,1566"/>
 <path fill="none" stroke="rgb(179,179,179)" stroke-linejoin="round" d="M 2063,1566 L 2213,1566"/>
 <path fill="none" stroke="rgb(179,179,179)" stroke-linejoin="round" d="M 2213,8861 L 2213,1566"/>
 <path fill="rgb(0,69,134)" stroke="none" d="M 7877,8861 L 8331,8861 8331,8698 7877,8698 7877,8861 Z"/>
 <path fill="rgb(0,69,134)" stroke="none" d="M 6971,8861 L 7424,8861 7424,8698 6971,8698 6971,8861 Z"/>
 <path fill="rgb(0,69,134)" stroke="none" d="M 6065,8861 L 6518,8861 6518,8050 6065,8050 6065,8861 Z"/>
 <path fill="rgb(0,69,134)" stroke="none" d="M 5158,8861 L 5611,8861 5611,7402 5158,7402 5158,8861 Z"/>
 <path fill="rgb(0,69,134)" stroke="none" d="M 4252,8861 L 4705,8861 4705,6915 4252,6915 4252,8861 Z"/>
 <path fill="rgb(0,69,134)" stroke="none" d="M 3345,8861 L 3799,8861 3799,5780 3345,5780 3345,8861 Z"/>
 <path fill="rgb(0,69,134)" stroke="none" d="M 2439,8861 L 2892,8861 2892,4160 2439,4160 2439,8861 Z"/>
 <path fill="rgb(255,66,14)" stroke="none" d="M 16034,8861 L 16487,8861 16487,8828 16034,8828 16034,8861 Z"/>
 <path fill="rgb(255,66,14)" stroke="none" d="M 15127,8861 L 15581,8861 15581,8828 15127,8828 15127,8861 Z"/>
 <path fill="rgb(255,66,14)" stroke="none" d="M 14221,8861 L 14674,8861 14674,8747 14221,8747 14221,8861 Z"/>
 <path fill="rgb(255,66,14)" stroke="none" d="M 12408,8861 L 12861,8861 12861,8731 12408,8731 12408,8861 Z"/>
 <path fill="rgb(255,66,14)" stroke="none" d="M 11502,8861 L 11955,8861 11955,8617 11502,8617 11502,8861 Z"/>
 <path fill="rgb(255,66,14)" stroke="none" d="M 9690,8861 L 10142,8861 10142,8698 9690,8698 9690,8861 Z"/>
 <path fill="rgb(255,66,14)" stroke="none" d="M 8784,8861 L 9237,8861 9237,8796 8784,8796 8784,8861 Z"/>
 <path fill="rgb(255,66,14)" stroke="none" d="M 7877,8698 L 8331,8698 8331,7499 7877,7499 7877,8698 Z"/>
 <path fill="rgb(255,66,14)" stroke="none" d="M 6971,8698 L 7424,8698 7424,7012 6971,7012 6971,8698 Z"/>
 <path fill="rgb(255,66,14)" stroke="none" d="M 6065,8050 L 6518,8050 6518,5991 6065,5991 6065,8050 Z"/>
 <path fill="rgb(255,66,14)" stroke="none" d="M 5158,7402 L 5611,7402 5611,5537 5158,5537 5158,7402 Z"/>
 <path fill="rgb(255,66,14)" stroke="none" d="M 4252,6915 L 4705,6915 4705,4566 4252,4566 4252,6915 Z"/>
 <path fill="rgb(255,66,14)" stroke="none" d="M 3345,5780 L 3799,5780 3799,4241 3345,4241 3345,5780 Z"/>
 <path fill="rgb(255,66,14)" stroke="none" d="M 2439,4160 L 2892,4160 2892,2620 2439,2620 2439,4160 Z"/>
 <text class="TextShape"><tspan class="TextParagraph" font-family="Liberation Sans, sans-serif" font-size="353px" font-weight="400"><tspan class="TextPosition" x="2573" y="9429"/><tspan class="TextPosition" x="2573" y="9429"><tspan fill="rgb(0,0,0)" stroke="none">1</tspan></tspan></tspan></text>
 <text class="TextShape"><tspan class="TextParagraph" font-family="Liberation Sans, sans-serif" font-size="353px" font-weight="400"><tspan class="TextPosition" x="3479" y="9429"/><tspan class="TextPosition" x="3479" y="9429"><tspan fill="rgb(0,0,0)" stroke="none">2</tspan></tspan></tspan></text>
 <text class="TextShape"><tspan class="TextParagraph" font-family="Liberation Sans, sans-serif" font-size="353px" font-weight="400"><tspan class="TextPosition" x="4385" y="9429"/><tspan class="TextPosition" x="4385" y="9429"><tspan fill="rgb(0,0,0)" stroke="none">3</tspan></tspan></tspan></text>
 <text class="TextShape"><tspan class="TextParagraph" font-family="Liberation Sans, sans-serif" font-size="353px" font-weight="400"><tspan class="TextPosition" x="5292" y="9429"/><tspan class="TextPosition" x="5292" y="9429"><tspan fill="rgb(0,0,0)" stroke="none">4</tspan></tspan></tspan></text>
 <text class="TextShape"><tspan class="TextParagraph" font-family="Liberation Sans, sans-serif" font-size="353px" font-weight="400"><tspan class="TextPosition" x="6198" y="9429"/><tspan class="TextPosition" x="6198" y="9429"><tspan fill="rgb(0,0,0)" stroke="none">5</tspan></tspan></tspan></text>
 <text class="TextShape"><tspan class="TextParagraph" font-family="Liberation Sans, sans-serif" font-size="353px" font-weight="400"><tspan class="TextPosition" x="7105" y="9429"/><tspan class="TextPosition" x="7105" y="9429"><tspan fill="rgb(0,0,0)" stroke="none">6</tspan></tspan></tspan></text>
 <text class="TextShape"><tspan class="TextParagraph" font-family="Liberation Sans, sans-serif" font-size="353px" font-weight="400"><tspan class="TextPosition" x="8011" y="9429"/><tspan class="TextPosition" x="8011" y="9429"><tspan fill="rgb(0,0,0)" stroke="none">7</tspan></tspan></tspan></text>
 <text class="TextShape"><tspan class="TextParagraph" font-family="Liberation Sans, sans-serif" font-size="353px" font-weight="400"><tspan class="TextPosition" x="8917" y="9429"/><tspan class="TextPosition" x="8917" y="9429"><tspan fill="rgb(0,0,0)" stroke="none">8</tspan></tspan></tspan></text>
 <text class="TextShape"><tspan class="TextParagraph" font-family="Liberation Sans, sans-serif" font-size="353px" font-weight="400"><tspan class="TextPosition" x="9824" y="9429"/><tspan class="TextPosition" x="9824" y="9429"><tspan fill="rgb(0,0,0)" stroke="none">9</tspan></tspan></tspan></text>
 <text class="TextShape"><tspan class="TextParagraph" font-family="Liberation Sans, sans-serif" font-size="353px" font-weight="400"><tspan class="TextPosition" x="10638" y="9429"/><tspan class="TextPosition" x="10638" y="9429"><tspan fill="rgb(0,0,0)" stroke="none">10</tspan></tspan></tspan></text>
 <text class="TextShape"><tspan class="TextParagraph" font-family="Liberation Sans, sans-serif" font-size="353px" font-weight="400"><tspan class="TextPosition" x="11544" y="9429"/><tspan class="TextPosition" x="11544" y="9429"><tspan fill="rgb(0,0,0)" stroke="none">11</tspan></tspan></tspan></text>
 <text class="TextShape"><tspan class="TextParagraph" font-family="Liberation Sans, sans-serif" font-size="353px" font-weight="400"><tspan class="TextPosition" x="12451" y="9429"/><tspan class="TextPosition" x="12451" y="9429"><tspan fill="rgb(0,0,0)" stroke="none">12</tspan></tspan></tspan></text>
 <text class="TextShape"><tspan class="TextParagraph" font-family="Liberation Sans, sans-serif" font-size="353px" font-weight="400"><tspan class="TextPosition" x="13357" y="9429"/><tspan class="TextPosition" x="13357" y="9429"><tspan fill="rgb(0,0,0)" stroke="none">13</tspan></tspan></tspan></text>
 <text class="TextShape"><tspan class="TextParagraph" font-family="Liberation Sans, sans-serif" font-size="353px" font-weight="400"><tspan class="TextPosition" x="14264" y="9429"/><tspan class="TextPosition" x="14264" y="9429"><tspan fill="rgb(0,0,0)" stroke="none">14</tspan></tspan></tspan></text>
 <text class="TextShape"><tspan class="TextParagraph" font-family="Liberation Sans, sans-serif" font-size="353px" font-weight="400"><tspan class="TextPosition" x="15170" y="9429"/><tspan class="TextPosition" x="15170" y="9429"><tspan fill="rgb(0,0,0)" stroke="none">15</tspan></tspan></tspan></text>
 <text class="TextShape"><tspan class="TextParagraph" font-family="Liberation Sans, sans-serif" font-size="353px" font-weight="400"><tspan class="TextPosition" x="16076" y="9429"/><tspan class="TextPosition" x="16076" y="9429"><tspan fill="rgb(0,0,0)" stroke="none">16</tspan></tspan></tspan></text>
 <text class="TextShape"><tspan class="TextParagraph" font-family="Liberation Sans, sans-serif" font-size="353px" font-weight="400"><tspan class="TextPosition" x="1778" y="8982"/><tspan class="TextPosition" x="1778" y="8982"><tspan fill="rgb(0,0,0)" stroke="none">0</tspan></tspan></tspan></text>
 <text class="TextShape"><tspan class="TextParagraph" font-family="Liberation Sans, sans-serif" font-size="353px" font-weight="400"><tspan class="TextPosition" x="1593" y="8171"/><tspan class="TextPosition" x="1593" y="8171"><tspan fill="rgb(0,0,0)" stroke="none">50</tspan></tspan></tspan></text>
 <text class="TextShape"><tspan class="TextParagraph" font-family="Liberation Sans, sans-serif" font-size="353px" font-weight="400"><tspan class="TextPosition" x="1407" y="7360"/><tspan class="TextPosition" x="1407" y="7360"><tspan fill="rgb(0,0,0)" stroke="none">100</tspan></tspan></tspan></text>
 <text class="TextShape"><tspan class="TextParagraph" font-family="Liberation Sans, sans-serif" font-size="353px" font-weight="400"><tspan class="TextPosition" x="1407" y="6550"/><tspan class="TextPosition" x="1407" y="6550"><tspan fill="rgb(0,0,0)" stroke="none">150</tspan></tspan></tspan></text>
 <text class="TextShape"><tspan class="TextParagraph" font-family="Liberation Sans, sans-serif" font-size="353px" font-weight="400"><tspan class="TextPosition" x="1407" y="5739"/><tspan class="TextPosition" x="1407" y="5739"><tspan fill="rgb(0,0,0)" stroke="none">200</tspan></tspan></tspan></text>
 <text class="TextShape"><tspan class="TextParagraph" font-family="Liberation Sans, sans-serif" font-size="353px" font-weight="400"><tspan class="TextPosition" x="1407" y="4929"/><tspan class="TextPosition" x="1407" y="4929"><tspan fill="rgb(0,0,0)" stroke="none">250</tspan></tspan></tspan></text>
 <text class="TextShape"><tspan class="TextParagraph" font-family="Liberation Sans, sans-serif" font-size="353px" font-weight="400"><tspan class="TextPosition" x="1407" y="4118"/><tspan class="TextPosition" x="1407" y="4118"><tspan fill="rgb(0,0,0)" stroke="none">300</tspan></tspan></tspan></text>
 <text class="TextShape"><tspan class="TextParagraph" font-family="Liberation Sans, sans-serif" font-size="353px" font-weight="400"><tspan class="TextPosition" x="1407" y="3308"/><tspan class="TextPosition" x="1407" y="3308"><tspan fill="rgb(0,0,0)" stroke="none">350</tspan></tspan></tspan></text>
 <text class="TextShape"><tspan class="TextParagraph" font-family="Liberation Sans, sans-serif" font-size="353px" font-weight="400"><tspan class="TextPosition" x="1407" y="2497"/><tspan class="TextPosition" x="1407" y="2497"><tspan fill="rgb(0,0,0)" stroke="none">400</tspan></tspan></tspan></text>
 <text class="TextShape"><tspan class="TextParagraph" font-family="Liberation Sans, sans-serif" font-size="353px" font-weight="400"><tspan class="TextPosition" x="1407" y="1686"/><tspan class="TextPosition" x="1407" y="1686"><tspan fill="rgb(0,0,0)" stroke="none">450</tspan></tspan></tspan></text>
 <text class="TextShape"><tspan class="TextParagraph" font-family="Liberation Sans, sans-serif" font-size="459px" font-weight="400"><tspan class="TextPosition" x="6974" y="911"/><tspan class="TextPosition" x="6974" y="911"><tspan fill="rgb(0,0,0)" stroke="none">Number of Connective Words</tspan></tspan></tspan></text>
 <path fill="rgb(0,69,134)" stroke="none" d="M 17331,5705 L 17225,5705 17225,5494 17436,5494 17436,5705 17331,5705 Z"/>
 <path fill="rgb(255,66,14)" stroke="none" d="M 17331,5208 L 17225,5208 17225,4997 17436,4997 17436,5208 17331,5208 Z"/>
 <text class="TextShape"><tspan class="TextParagraph" font-family="Liberation Sans, sans-serif" font-size="353px" font-weight="400"><tspan class="TextPosition" x="17536" y="5222"/><tspan class="TextPosition" x="17536" y="5222"><tspan fill="rgb(0,0,0)" stroke="none">Class “YES”</tspan></tspan></tspan></text>
 <text class="TextShape"><tspan class="TextParagraph" font-family="Liberation Sans, sans-serif" font-size="353px" font-weight="400"><tspan class="TextPosition" x="17536" y="5719"/><tspan class="TextPosition" x="17536" y="5719"><tspan fill="rgb(0,0,0)" stroke="none">Class “NO”</tspan></tspan></tspan></text>
 <text class="TextShape"><tspan class="TextParagraph" font-family="Liberation Sans, sans-serif" font-size="318px" font-weight="400"><tspan class="TextPosition" x="6255" y="10110"/><tspan class="TextPosition" x="6255" y="10110"><tspan fill="rgb(0,0,0)" stroke="none">No. of Connective Words in a Sentence</tspan></tspan></tspan></text>
 <text class="TextShape"><tspan class="TextParagraph" font-family="Liberation Sans, sans-serif" font-size="318px" font-weight="400"><tspan class="TextPosition" x="837" y="6669" transform="translate(837,6669) rotate(-90) translate(-837,-6669)"/><tspan class="TextPosition" x="837" y="6669" transform="translate(837,6669) rotate(-90) translate(-837,-6669)"><tspan fill="rgb(0,0,0)" stroke="none">No. of Sentences</tspan></tspan></tspan></text>
</svg>