<?xml version="1.0" encoding="UTF-8"?>
<!DOCTYPE svg PUBLIC "-//W3C//DTD SVG 1.1//EN" "http://www.w3.org/Graphics/SVG/1.1/DTD/svg11.dtd">
<svg width="198mm" height="107mm" viewBox="0 0 19800 10700" version="1.1" baseProfile="tiny" xmlns="http://www.w3.org/2000/svg" stroke-width="28.222" stroke-linejoin="round" xml:space="preserve">
 <path fill="rgb(255,255,255)" stroke="none" d="M 9885,10704 L 0,10704 0,0 19769,0 19769,10704 9885,10704 Z"/>
 <path fill="none" stroke="rgb(179,179,179)" stroke-linejoin="round" d="M 9464,8862 L 2213,8862 2213,1569 16714,1569 16714,8862 9464,8862 Z"/>
 <path fill="none" stroke="rgb(179,179,179)" stroke-linejoin="round" d="M 16714,8861 L 2213,8861"/>
 <path fill="none" stroke="rgb(179,179,179)" stroke-linejoin="round" d="M 16714,7645 L 2213,7645"/>
 <path fill="none" stroke="rgb(179,179,179)" stroke-linejoin="round" d="M 16714,6429 L 2213,6429"/>
 <path fill="none" stroke="rgb(179,179,179)" stroke-linejoin="round" d="M 16714,5215 L 2213,5215"/>
 <path fill="none" stroke="rgb(179,179,179)" stroke-linejoin="round" d="M 16714,3999 L 2213,3999"/>
 <path fill="none" stroke="rgb(179,179,179)" stroke-linejoin="round" d="M 16714,2783 L 2213,2783"/>
 <path fill="none" stroke="rgb(179,179,179)" stroke-linejoin="round" d="M 16714,1567 L 2213,1567"/>
 <path fill="none" stroke="rgb(179,179,179)" stroke-linejoin="round" d="M 2213,9011 L 2213,8861"/>
 <path fill="none" stroke="rgb(179,179,179)" stroke-linejoin="round" d="M 2213,9011 L 2213,8861"/>
 <path fill="none" stroke="rgb(179,179,179)" stroke-linejoin="round" d="M 3531,9011 L 3531,8861"/>
 <path fill="none" stroke="rgb(179,179,179)" stroke-linejoin="round" d="M 3531,9011 L 3531,8861"/>
 <path fill="none" stroke="rgb(179,179,179)" stroke-linejoin="round" d="M 4849,9011 L 4849,8861"/>
 <path fill="none" stroke="rgb(179,179,179)" stroke-linejoin="round" d="M 4849,9011 L 4849,8861"/>
 <path fill="none" stroke="rgb(179,179,179)" stroke-linejoin="round" d="M 6168,9011 L 6168,8861"/>
 <path fill="none" stroke="rgb(179,179,179)" stroke-linejoin="round" d="M 6168,9011 L 6168,8861"/>
 <path fill="none" stroke="rgb(179,179,179)" stroke-linejoin="round" d="M 7486,9011 L 7486,8861"/>
 <path fill="none" stroke="rgb(179,179,179)" stroke-linejoin="round" d="M 7486,9011 L 7486,8861"/>
 <path fill="none" stroke="rgb(179,179,179)" stroke-linejoin="round" d="M 8804,9011 L 8804,8861"/>
 <path fill="none" stroke="rgb(179,179,179)" stroke-linejoin="round" d="M 8804,9011 L 8804,8861"/>
 <path fill="none" stroke="rgb(179,179,179)" stroke-linejoin="round" d="M 10122,9011 L 10122,8861"/>
 <path fill="none" stroke="rgb(179,179,179)" stroke-linejoin="round" d="M 10122,9011 L 10122,8861"/>
 <path fill="none" stroke="rgb(179,179,179)" stroke-linejoin="round" d="M 11440,9011 L 11440,8861"/>
 <path fill="none" stroke="rgb(179,179,179)" stroke-linejoin="round" d="M 11440,9011 L 11440,8861"/>
 <path fill="none" stroke="rgb(179,179,179)" stroke-linejoin="round" d="M 12758,9011 L 12758,8861"/>
 <path fill="none" stroke="rgb(179,179,179)" stroke-linejoin="round" d="M 12758,9011 L 12758,8861"/>
 <path fill="none" stroke="rgb(179,179,179)" stroke-linejoin="round" d="M 14077,9011 L 14077,8861"/>
 <path fill="none" stroke="rgb(179,179,179)" stroke-linejoin="round" d="M 14077,9011 L 14077,8861"/>
 <path fill="none" stroke="rgb(179,179,179)" stroke-linejoin="round" d="M 15395,9011 L 15395,8861"/>
 <path fill="none" stroke="rgb(179,179,179)" stroke-linejoin="round" d="M 15395,9011 L 15395,8861"/>
 <path fill="none" stroke="rgb(179,179,179)" stroke-linejoin="round" d="M 16714,9011 L 16714,8861"/>
 <path fill="none" stroke="rgb(179,179,179)" stroke-linejoin="round" d="M 16714,9011 L 16714,8861"/>
 <path fill="none" stroke="rgb(179,179,179)" stroke-linejoin="round" d="M 2213,8861 L 16714,8861"/>
 <path fill="none" stroke="rgb(179,179,179)" stroke-linejoin="round" d="M 2063,8861 L 2213,8861"/>
 <path fill="none" stroke="rgb(179,179,179)" stroke-linejoin="round" d="M 2063,8861 L 2213,8861"/>
 <path fill="none" stroke="rgb(179,179,179)" stroke-linejoin="round" d="M 2063,7645 L 2213,7645"/>
 <path fill="none" stroke="rgb(179,179,179)" stroke-linejoin="round" d="M 2063,7645 L 2213,7645"/>
 <path fill="none" stroke="rgb(179,179,179)" stroke-linejoin="round" d="M 2063,6429 L 2213,6429"/>
 <path fill="none" stroke="rgb(179,179,179)" stroke-linejoin="round" d="M 2063,6429 L 2213,6429"/>
 <path fill="none" stroke="rgb(179,179,179)" stroke-linejoin="round" d="M 2063,5215 L 2213,5215"/>
 <path fill="none" stroke="rgb(179,179,179)" stroke-linejoin="round" d="M 2063,5215 L 2213,5215"/>
 <path fill="none" stroke="rgb(179,179,179)" stroke-linejoin="round" d="M 2063,3999 L 2213,3999"/>
 <path fill="none" stroke="rgb(179,179,179)" stroke-linejoin="round" d="M 2063,3999 L 2213,3999"/>
 <path fill="none" stroke="rgb(179,179,179)" stroke-linejoin="round" d="M 2063,2783 L 2213,2783"/>
 <path fill="none" stroke="rgb(179,179,179)" stroke-linejoin="round" d="M 2063,2783 L 2213,2783"/>
 <path fill="none" stroke="rgb(179,179,179)" stroke-linejoin="round" d="M 2063,1567 L 2213,1567"/>
 <path fill="none" stroke="rgb(179,179,179)" stroke-linejoin="round" d="M 2063,1567 L 2213,1567"/>
 <path fill="none" stroke="rgb(179,179,179)" stroke-linejoin="round" d="M 2213,8861 L 2213,1567"/>
 <path fill="rgb(0,69,134)" stroke="none" d="M 9134,8861 L 9793,8861 9793,8788 9134,8788 9134,8861 Z"/>
 <path fill="rgb(0,69,134)" stroke="none" d="M 7816,8861 L 8475,8861 8475,8824 7816,8824 7816,8861 Z"/>
 <path fill="rgb(0,69,134)" stroke="none" d="M 5179,8861 L 5838,8861 5838,8253 5179,8253 5179,8861 Z"/>
 <path fill="rgb(0,69,134)" stroke="none" d="M 3860,8861 L 4520,8861 4520,7523 3860,7523 3860,8861 Z"/>
 <path fill="rgb(0,69,134)" stroke="none" d="M 2542,8861 L 3201,8861 3201,4607 2542,4607 2542,8861 Z"/>
 <path fill="rgb(255,66,14)" stroke="none" d="M 15725,8861 L 16384,8861 16384,8824 15725,8824 15725,8861 Z"/>
 <path fill="rgb(255,66,14)" stroke="none" d="M 10451,8861 L 11110,8861 11110,8824 10451,8824 10451,8861 Z"/>
 <path fill="rgb(255,66,14)" stroke="none" d="M 9134,8788 L 9793,8788 9793,8423 9134,8423 9134,8788 Z"/>
 <path fill="rgb(255,66,14)" stroke="none" d="M 7816,8824 L 8475,8824 8475,8168 7816,8168 7816,8824 Z"/>
 <path fill="rgb(255,66,14)" stroke="none" d="M 5179,8253 L 5838,8253 5838,6855 5179,6855 5179,8253 Z"/>
 <path fill="rgb(255,66,14)" stroke="none" d="M 3860,7523 L 4520,7523 4520,5505 3860,5505 3860,7523 Z"/>
 <path fill="rgb(255,66,14)" stroke="none" d="M 2542,4607 L 3201,4607 3201,2455 2542,2455 2542,4607 Z"/>
 <text class="TextShape"><tspan class="TextParagraph" font-family="Liberation Sans" font-size="353px" font-weight="400"><tspan class="TextPosition" x="2779" y="9429"/><tspan class="TextPosition" x="2779" y="9429"><tspan fill="rgb(0,0,0)" stroke="none">1</tspan></tspan></tspan></text>
 <text class="TextShape"><tspan class="TextParagraph" font-family="Liberation Sans" font-size="353px" font-weight="400"><tspan class="TextPosition" x="4097" y="9429"/><tspan class="TextPosition" x="4097" y="9429"><tspan fill="rgb(0,0,0)" stroke="none">2</tspan></tspan></tspan></text>
 <text class="TextShape"><tspan class="TextParagraph" font-family="Liberation Sans" font-size="353px" font-weight="400"><tspan class="TextPosition" x="5415" y="9429"/><tspan class="TextPosition" x="5415" y="9429"><tspan fill="rgb(0,0,0)" stroke="none">3</tspan></tspan></tspan></text>
 <text class="TextShape"><tspan class="TextParagraph" font-family="Liberation Sans" font-size="353px" font-weight="400"><tspan class="TextPosition" x="6734" y="9429"/><tspan class="TextPosition" x="6734" y="9429"><tspan fill="rgb(0,0,0)" stroke="none">4</tspan></tspan></tspan></text>
 <text class="TextShape"><tspan class="TextParagraph" font-family="Liberation Sans" font-size="353px" font-weight="400"><tspan class="TextPosition" x="8052" y="9429"/><tspan class="TextPosition" x="8052" y="9429"><tspan fill="rgb(0,0,0)" stroke="none">5</tspan></tspan></tspan></text>
 <text class="TextShape"><tspan class="TextParagraph" font-family="Liberation Sans" font-size="353px" font-weight="400"><tspan class="TextPosition" x="9371" y="9429"/><tspan class="TextPosition" x="9371" y="9429"><tspan fill="rgb(0,0,0)" stroke="none">6</tspan></tspan></tspan></text>
 <text class="TextShape"><tspan class="TextParagraph" font-family="Liberation Sans" font-size="353px" font-weight="400"><tspan class="TextPosition" x="10689" y="9429"/><tspan class="TextPosition" x="10689" y="9429"><tspan fill="rgb(0,0,0)" stroke="none">7</tspan></tspan></tspan></text>
 <text class="TextShape"><tspan class="TextParagraph" font-family="Liberation Sans" font-size="353px" font-weight="400"><tspan class="TextPosition" x="12007" y="9429"/><tspan class="TextPosition" x="12007" y="9429"><tspan fill="rgb(0,0,0)" stroke="none">8</tspan></tspan></tspan></text>
 <text class="TextShape"><tspan class="TextParagraph" font-family="Liberation Sans" font-size="353px" font-weight="400"><tspan class="TextPosition" x="13326" y="9429"/><tspan class="TextPosition" x="13326" y="9429"><tspan fill="rgb(0,0,0)" stroke="none">9</tspan></tspan></tspan></text>
 <text class="TextShape"><tspan class="TextParagraph" font-family="Liberation Sans" font-size="353px" font-weight="400"><tspan class="TextPosition" x="14552" y="9429"/><tspan class="TextPosition" x="14552" y="9429"><tspan fill="rgb(0,0,0)" stroke="none">10</tspan></tspan></tspan></text>
 <text class="TextShape"><tspan class="TextParagraph" font-family="Liberation Sans" font-size="353px" font-weight="400"><tspan class="TextPosition" x="15870" y="9429"/><tspan class="TextPosition" x="15870" y="9429"><tspan fill="rgb(0,0,0)" stroke="none">11</tspan></tspan></tspan></text>
 <text class="TextShape"><tspan class="TextParagraph" font-family="Liberation Sans" font-size="353px" font-weight="400"><tspan class="TextPosition" x="1778" y="8982"/><tspan class="TextPosition" x="1778" y="8982"><tspan fill="rgb(0,0,0)" stroke="none">0</tspan></tspan></tspan></text>
 <text class="TextShape"><tspan class="TextParagraph" font-family="Liberation Sans" font-size="353px" font-weight="400"><tspan class="TextPosition" x="1407" y="7766"/><tspan class="TextPosition" x="1407" y="7766"><tspan fill="rgb(0,0,0)" stroke="none">100</tspan></tspan></tspan></text>
 <text class="TextShape"><tspan class="TextParagraph" font-family="Liberation Sans" font-size="353px" font-weight="400"><tspan class="TextPosition" x="1407" y="6550"/><tspan class="TextPosition" x="1407" y="6550"><tspan fill="rgb(0,0,0)" stroke="none">200</tspan></tspan></tspan></text>
 <text class="TextShape"><tspan class="TextParagraph" font-family="Liberation Sans" font-size="353px" font-weight="400"><tspan class="TextPosition" x="1407" y="5335"/><tspan class="TextPosition" x="1407" y="5335"><tspan fill="rgb(0,0,0)" stroke="none">300</tspan></tspan></tspan></text>
 <text class="TextShape"><tspan class="TextParagraph" font-family="Liberation Sans" font-size="353px" font-weight="400"><tspan class="TextPosition" x="1407" y="4119"/><tspan class="TextPosition" x="1407" y="4119"><tspan fill="rgb(0,0,0)" stroke="none">400</tspan></tspan></tspan></text>
 <text class="TextShape"><tspan class="TextParagraph" font-family="Liberation Sans" font-size="353px" font-weight="400"><tspan class="TextPosition" x="1407" y="2903"/><tspan class="TextPosition" x="1407" y="2903"><tspan fill="rgb(0,0,0)" stroke="none">500</tspan></tspan></tspan></text>
 <text class="TextShape"><tspan class="TextParagraph" font-family="Liberation Sans" font-size="353px" font-weight="400"><tspan class="TextPosition" x="1407" y="1687"/><tspan class="TextPosition" x="1407" y="1687"><tspan fill="rgb(0,0,0)" stroke="none">600</tspan></tspan></tspan></text>
 <text class="TextShape"><tspan class="TextParagraph" font-family="Liberation Sans" font-size="459px" font-weight="400"><tspan class="TextPosition" x="7689" y="911"/><tspan class="TextPosition" x="7689" y="911"><tspan fill="rgb(0,0,0)" stroke="none">Number of Cue Words</tspan></tspan></tspan></text>
 <path fill="rgb(0,69,134)" stroke="none" d="M 17331,5705 L 17225,5705 17225,5494 17436,5494 17436,5705 17331,5705 Z"/>
 <path fill="rgb(255,66,14)" stroke="none" d="M 17331,5208 L 17225,5208 17225,4997 17436,4997 17436,5208 17331,5208 Z"/>
 <text class="TextShape"><tspan class="TextParagraph" font-family="Liberation Sans" font-size="353px" font-weight="400"><tspan class="TextPosition" x="17536" y="5222"/><tspan class="TextPosition" x="17536" y="5222"><tspan fill="rgb(0,0,0)" stroke="none">Class “YES”</tspan></tspan></tspan></text>
 <text class="TextShape"><tspan class="TextParagraph" font-family="Liberation Sans" font-size="353px" font-weight="400"><tspan class="TextPosition" x="17536" y="5719"/><tspan class="TextPosition" x="17536" y="5719"><tspan fill="rgb(0,0,0)" stroke="none">Class “NO”</tspan></tspan></tspan></text>
 <text class="TextShape"><tspan class="TextParagraph" font-family="Liberation Sans" font-size="318px" font-weight="400"><tspan class="TextPosition" x="6692" y="10110"/><tspan class="TextPosition" x="6692" y="10110"><tspan fill="rgb(0,0,0)" stroke="none">No. of Cue Wordss in a Sentence</tspan></tspan></tspan></text>
 <text class="TextShape"><tspan class="TextParagraph" font-family="Liberation Sans" font-size="318px" font-weight="400"><tspan class="TextPosition" x="837" y="6669" transform="translate(837,6669) rotate(-90) translate(-837,-6669)"/><tspan class="TextPosition" x="837" y="6669" transform="translate(837,6669) rotate(-90) translate(-837,-6669)"><tspan fill="rgb(0,0,0)" stroke="none">No. of Sentences</tspan></tspan></tspan></text>
</svg>