<?xml version="1.0" encoding="UTF-8"?>
<!DOCTYPE svg PUBLIC "-//W3C//DTD SVG 1.1//EN" "http://www.w3.org/Graphics/SVG/1.1/DTD/svg11.dtd">
<svg width="198mm" height="107mm" viewBox="0 0 19800 10700" version="1.1" baseProfile="tiny" xmlns="http://www.w3.org/2000/svg" stroke-width="28.222" stroke-linejoin="round" xml:space="preserve">
 <path fill="rgb(255,255,255)" stroke="none" d="M 9885,10704 L 0,10704 0,0 19769,0 19769,10704 9885,10704 Z"/>
 <path fill="none" stroke="rgb(179,179,179)" stroke-linejoin="round" d="M 9464,8862 L 2213,8862 2213,1568 16714,1568 16714,8862 9464,8862 Z"/>
 <path fill="none" stroke="rgb(179,179,179)" stroke-linejoin="round" d="M 16714,8861 L 2213,8861"/>
 <path fill="none" stroke="rgb(179,179,179)" stroke-linejoin="round" d="M 16714,8050 L 2213,8050"/>
 <path fill="none" stroke="rgb(179,179,179)" stroke-linejoin="round" d="M 16714,7239 L 2213,7239"/>
 <path fill="none" stroke="rgb(179,179,179)" stroke-linejoin="round" d="M 16714,6429 L 2213,6429"/>
 <path fill="none" stroke="rgb(179,179,179)" stroke-linejoin="round" d="M 16714,5618 L 2213,5618"/>
 <path fill="none" stroke="rgb(179,179,179)" stroke-linejoin="round" d="M 16714,4809 L 2213,4809"/>
 <path fill="none" stroke="rgb(179,179,179)" stroke-linejoin="round" d="M 16714,3998 L 2213,3998"/>
 <path fill="none" stroke="rgb(179,179,179)" stroke-linejoin="round" d="M 16714,3188 L 2213,3188"/>
 <path fill="none" stroke="rgb(179,179,179)" stroke-linejoin="round" d="M 16714,2377 L 2213,2377"/>
 <path fill="none" stroke="rgb(179,179,179)" stroke-linejoin="round" d="M 16714,1566 L 2213,1566"/>
 <path fill="none" stroke="rgb(179,179,179)" stroke-linejoin="round" d="M 2213,9011 L 2213,8861"/>
 <path fill="none" stroke="rgb(179,179,179)" stroke-linejoin="round" d="M 2213,9011 L 2213,8861"/>
 <path fill="none" stroke="rgb(179,179,179)" stroke-linejoin="round" d="M 4025,9011 L 4025,8861"/>
 <path fill="none" stroke="rgb(179,179,179)" stroke-linejoin="round" d="M 4025,9011 L 4025,8861"/>
 <path fill="none" stroke="rgb(179,179,179)" stroke-linejoin="round" d="M 5838,9011 L 5838,8861"/>
 <path fill="none" stroke="rgb(179,179,179)" stroke-linejoin="round" d="M 5838,9011 L 5838,8861"/>
 <path fill="none" stroke="rgb(179,179,179)" stroke-linejoin="round" d="M 7651,9011 L 7651,8861"/>
 <path fill="none" stroke="rgb(179,179,179)" stroke-linejoin="round" d="M 7651,9011 L 7651,8861"/>
 <path fill="none" stroke="rgb(179,179,179)" stroke-linejoin="round" d="M 9464,9011 L 9464,8861"/>
 <path fill="none" stroke="rgb(179,179,179)" stroke-linejoin="round" d="M 9464,9011 L 9464,8861"/>
 <path fill="none" stroke="rgb(179,179,179)" stroke-linejoin="round" d="M 11275,9011 L 11275,8861"/>
 <path fill="none" stroke="rgb(179,179,179)" stroke-linejoin="round" d="M 11275,9011 L 11275,8861"/>
 <path fill="none" stroke="rgb(179,179,179)" stroke-linejoin="round" d="M 13088,9011 L 13088,8861"/>
 <path fill="none" stroke="rgb(179,179,179)" stroke-linejoin="round" d="M 13088,9011 L 13088,8861"/>
 <path fill="none" stroke="rgb(179,179,179)" stroke-linejoin="round" d="M 14901,9011 L 14901,8861"/>
 <path fill="none" stroke="rgb(179,179,179)" stroke-linejoin="round" d="M 14901,9011 L 14901,8861"/>
 <path fill="none" stroke="rgb(179,179,179)" stroke-linejoin="round" d="M 16714,9011 L 16714,8861"/>
 <path fill="none" stroke="rgb(179,179,179)" stroke-linejoin="round" d="M 16714,9011 L 16714,8861"/>
 <path fill="none" stroke="rgb(179,179,179)" stroke-linejoin="round" d="M 2213,8861 L 16714,8861"/>
 <path fill="none" stroke="rgb(179,179,179)" stroke-linejoin="round" d="M 2063,8861 L 2213,8861"/>
 <path fill="none" stroke="rgb(179,179,179)" stroke-linejoin="round" d="M 2063,8861 L 2213,8861"/>
 <path fill="none" stroke="rgb(179,179,179)" stroke-linejoin="round" d="M 2063,8050 L 2213,8050"/>
 <path fill="none" stroke="rgb(179,179,179)" stroke-linejoin="round" d="M 2063,8050 L 2213,8050"/>
 <path fill="none" stroke="rgb(179,179,179)" stroke-linejoin="round" d="M 2063,7239 L 2213,7239"/>
 <path fill="none" stroke="rgb(179,179,179)" stroke-linejoin="round" d="M 2063,7239 L 2213,7239"/>
 <path fill="none" stroke="rgb(179,179,179)" stroke-linejoin="round" d="M 2063,6429 L 2213,6429"/>
 <path fill="none" stroke="rgb(179,179,179)" stroke-linejoin="round" d="M 2063,6429 L 2213,6429"/>
 <path fill="none" stroke="rgb(179,179,179)" stroke-linejoin="round" d="M 2063,5618 L 2213,5618"/>
 <path fill="none" stroke="rgb(179,179,179)" stroke-linejoin="round" d="M 2063,5618 L 2213,5618"/>
 <path fill="none" stroke="rgb(179,179,179)" stroke-linejoin="round" d="M 2063,4809 L 2213,4809"/>
 <path fill="none" stroke="rgb(179,179,179)" stroke-linejoin="round" d="M 2063,4809 L 2213,4809"/>
 <path fill="none" stroke="rgb(179,179,179)" stroke-linejoin="round" d="M 2063,3998 L 2213,3998"/>
 <path fill="none" stroke="rgb(179,179,179)" stroke-linejoin="round" d="M 2063,3998 L 2213,3998"/>
 <path fill="none" stroke="rgb(179,179,179)" stroke-linejoin="round" d="M 2063,3188 L 2213,3188"/>
 <path fill="none" stroke="rgb(179,179,179)" stroke-linejoin="round" d="M 2063,3188 L 2213,3188"/>
 <path fill="none" stroke="rgb(179,179,179)" stroke-linejoin="round" d="M 2063,2377 L 2213,2377"/>
 <path fill="none" stroke="rgb(179,179,179)" stroke-linejoin="round" d="M 2063,2377 L 2213,2377"/>
 <path fill="none" stroke="rgb(179,179,179)" stroke-linejoin="round" d="M 2063,1566 L 2213,1566"/>
 <path fill="none" stroke="rgb(179,179,179)" stroke-linejoin="round" d="M 2063,1566 L 2213,1566"/>
 <path fill="none" stroke="rgb(179,179,179)" stroke-linejoin="round" d="M 2213,8861 L 2213,1566"/>
 <path fill="rgb(0,69,134)" stroke="none" d="M 13541,8861 L 14448,8861 14448,8828 13541,8828 13541,8861 Z"/>
 <path fill="rgb(0,69,134)" stroke="none" d="M 11728,8861 L 12635,8861 12635,8844 11728,8844 11728,8861 Z"/>
 <path fill="rgb(0,69,134)" stroke="none" d="M 9916,8861 L 10822,8861 10822,8812 9916,8812 9916,8861 Z"/>
 <path fill="rgb(0,69,134)" stroke="none" d="M 6291,8861 L 7198,8861 7198,8050 6291,8050 6291,8861 Z"/>
 <path fill="rgb(0,69,134)" stroke="none" d="M 4478,8861 L 5385,8861 5385,6105 4478,6105 4478,8861 Z"/>
 <path fill="rgb(0,69,134)" stroke="none" d="M 2666,8861 L 3572,8861 3572,4485 2666,4485 2666,8861 Z"/>
 <path fill="rgb(255,66,14)" stroke="none" d="M 15354,8861 L 16260,8861 16260,8812 15354,8812 15354,8861 Z"/>
 <path fill="rgb(255,66,14)" stroke="none" d="M 13541,8828 L 14448,8828 14448,8796 13541,8796 13541,8828 Z"/>
 <path fill="rgb(255,66,14)" stroke="none" d="M 11728,8844 L 12635,8844 12635,8471 11728,8471 11728,8844 Z"/>
 <path fill="rgb(255,66,14)" stroke="none" d="M 9916,8812 L 10822,8812 10822,7953 9916,7953 9916,8812 Z"/>
 <path fill="rgb(255,66,14)" stroke="none" d="M 6291,8050 L 7198,8050 7198,6186 6291,6186 6291,8050 Z"/>
 <path fill="rgb(255,66,14)" stroke="none" d="M 4478,6105 L 5385,6105 5385,3074 4478,3074 4478,6105 Z"/>
 <path fill="rgb(255,66,14)" stroke="none" d="M 2666,4485 L 3572,4485 3572,2377 2666,2377 2666,4485 Z"/>
 <text class="TextShape"><tspan class="TextParagraph" font-family="Liberation Sans" font-size="353px" font-weight="400"><tspan class="TextPosition" x="3026" y="9429"/><tspan class="TextPosition" x="3026" y="9429"><tspan fill="rgb(0,0,0)" stroke="none">1</tspan></tspan></tspan></text>
 <text class="TextShape"><tspan class="TextParagraph" font-family="Liberation Sans" font-size="353px" font-weight="400"><tspan class="TextPosition" x="4839" y="9429"/><tspan class="TextPosition" x="4839" y="9429"><tspan fill="rgb(0,0,0)" stroke="none">2</tspan></tspan></tspan></text>
 <text class="TextShape"><tspan class="TextParagraph" font-family="Liberation Sans" font-size="353px" font-weight="400"><tspan class="TextPosition" x="6651" y="9429"/><tspan class="TextPosition" x="6651" y="9429"><tspan fill="rgb(0,0,0)" stroke="none">3</tspan></tspan></tspan></text>
 <text class="TextShape"><tspan class="TextParagraph" font-family="Liberation Sans" font-size="353px" font-weight="400"><tspan class="TextPosition" x="8464" y="9429"/><tspan class="TextPosition" x="8464" y="9429"><tspan fill="rgb(0,0,0)" stroke="none">4</tspan></tspan></tspan></text>
 <text class="TextShape"><tspan class="TextParagraph" font-family="Liberation Sans" font-size="353px" font-weight="400"><tspan class="TextPosition" x="10277" y="9429"/><tspan class="TextPosition" x="10277" y="9429"><tspan fill="rgb(0,0,0)" stroke="none">5</tspan></tspan></tspan></text>
 <text class="TextShape"><tspan class="TextParagraph" font-family="Liberation Sans" font-size="353px" font-weight="400"><tspan class="TextPosition" x="12090" y="9429"/><tspan class="TextPosition" x="12090" y="9429"><tspan fill="rgb(0,0,0)" stroke="none">6</tspan></tspan></tspan></text>
 <text class="TextShape"><tspan class="TextParagraph" font-family="Liberation Sans" font-size="353px" font-weight="400"><tspan class="TextPosition" x="13902" y="9429"/><tspan class="TextPosition" x="13902" y="9429"><tspan fill="rgb(0,0,0)" stroke="none">7</tspan></tspan></tspan></text>
 <text class="TextShape"><tspan class="TextParagraph" font-family="Liberation Sans" font-size="353px" font-weight="400"><tspan class="TextPosition" x="15715" y="9429"/><tspan class="TextPosition" x="15715" y="9429"><tspan fill="rgb(0,0,0)" stroke="none">8</tspan></tspan></tspan></text>
 <text class="TextShape"><tspan class="TextParagraph" font-family="Liberation Sans" font-size="353px" font-weight="400"><tspan class="TextPosition" x="1778" y="8982"/><tspan class="TextPosition" x="1778" y="8982"><tspan fill="rgb(0,0,0)" stroke="none">0</tspan></tspan></tspan></text>
 <text class="TextShape"><tspan class="TextParagraph" font-family="Liberation Sans" font-size="353px" font-weight="400"><tspan class="TextPosition" x="1593" y="8171"/><tspan class="TextPosition" x="1593" y="8171"><tspan fill="rgb(0,0,0)" stroke="none">50</tspan></tspan></tspan></text>
 <text class="TextShape"><tspan class="TextParagraph" font-family="Liberation Sans" font-size="353px" font-weight="400"><tspan class="TextPosition" x="1407" y="7360"/><tspan class="TextPosition" x="1407" y="7360"><tspan fill="rgb(0,0,0)" stroke="none">100</tspan></tspan></tspan></text>
 <text class="TextShape"><tspan class="TextParagraph" font-family="Liberation Sans" font-size="353px" font-weight="400"><tspan class="TextPosition" x="1407" y="6550"/><tspan class="TextPosition" x="1407" y="6550"><tspan fill="rgb(0,0,0)" stroke="none">150</tspan></tspan></tspan></text>
 <text class="TextShape"><tspan class="TextParagraph" font-family="Liberation Sans" font-size="353px" font-weight="400"><tspan class="TextPosition" x="1407" y="5739"/><tspan class="TextPosition" x="1407" y="5739"><tspan fill="rgb(0,0,0)" stroke="none">200</tspan></tspan></tspan></text>
 <text class="TextShape"><tspan class="TextParagraph" font-family="Liberation Sans" font-size="353px" font-weight="400"><tspan class="TextPosition" x="1407" y="4929"/><tspan class="TextPosition" x="1407" y="4929"><tspan fill="rgb(0,0,0)" stroke="none">250</tspan></tspan></tspan></text>
 <text class="TextShape"><tspan class="TextParagraph" font-family="Liberation Sans" font-size="353px" font-weight="400"><tspan class="TextPosition" x="1407" y="4118"/><tspan class="TextPosition" x="1407" y="4118"><tspan fill="rgb(0,0,0)" stroke="none">300</tspan></tspan></tspan></text>
 <text class="TextShape"><tspan class="TextParagraph" font-family="Liberation Sans" font-size="353px" font-weight="400"><tspan class="TextPosition" x="1407" y="3308"/><tspan class="TextPosition" x="1407" y="3308"><tspan fill="rgb(0,0,0)" stroke="none">350</tspan></tspan></tspan></text>
 <text class="TextShape"><tspan class="TextParagraph" font-family="Liberation Sans" font-size="353px" font-weight="400"><tspan class="TextPosition" x="1407" y="2497"/><tspan class="TextPosition" x="1407" y="2497"><tspan fill="rgb(0,0,0)" stroke="none">400</tspan></tspan></tspan></text>
 <text class="TextShape"><tspan class="TextParagraph" font-family="Liberation Sans" font-size="353px" font-weight="400"><tspan class="TextPosition" x="1407" y="1686"/><tspan class="TextPosition" x="1407" y="1686"><tspan fill="rgb(0,0,0)" stroke="none">450</tspan></tspan></tspan></text>
 <text class="TextShape"><tspan class="TextParagraph" font-family="Liberation Sans" font-size="459px" font-weight="400"><tspan class="TextPosition" x="6511" y="911"/><tspan class="TextPosition" x="6511" y="911"><tspan fill="rgb(0,0,0)" stroke="none">Number of Verbs in Passive Voice</tspan></tspan></tspan></text>
 <path fill="rgb(0,69,134)" stroke="none" d="M 17331,5705 L 17225,5705 17225,5494 17436,5494 17436,5705 17331,5705 Z"/>
 <path fill="rgb(255,66,14)" stroke="none" d="M 17331,5208 L 17225,5208 17225,4997 17436,4997 17436,5208 17331,5208 Z"/>
 <text class="TextShape"><tspan class="TextParagraph" font-family="Liberation Sans" font-size="353px" font-weight="400"><tspan class="TextPosition" x="17536" y="5222"/><tspan class="TextPosition" x="17536" y="5222"><tspan fill="rgb(0,0,0)" stroke="none">Class “YES”</tspan></tspan></tspan></text>
 <text class="TextShape"><tspan class="TextParagraph" font-family="Liberation Sans" font-size="353px" font-weight="400"><tspan class="TextPosition" x="17536" y="5719"/><tspan class="TextPosition" x="17536" y="5719"><tspan fill="rgb(0,0,0)" stroke="none">Class “NO”</tspan></tspan></tspan></text>
 <text class="TextShape"><tspan class="TextParagraph" font-family="Liberation Sans" font-size="318px" font-weight="400"><tspan class="TextPosition" x="6110" y="10110"/><tspan class="TextPosition" x="6110" y="10110"><tspan fill="rgb(0,0,0)" stroke="none">No. of Passive Voice Verbs in a Sentence</tspan></tspan></tspan></text>
 <text class="TextShape"><tspan class="TextParagraph" font-family="Liberation Sans" font-size="318px" font-weight="400"><tspan class="TextPosition" x="837" y="6669" transform="translate(837,6669) rotate(-90) translate(-837,-6669)"/><tspan class="TextPosition" x="837" y="6669" transform="translate(837,6669) rotate(-90) translate(-837,-6669)"><tspan fill="rgb(0,0,0)" stroke="none">No. of Sentences</tspan></tspan></tspan></text>
</svg>