<?xml version="1.0" encoding="UTF-8"?>
<!DOCTYPE svg PUBLIC "-//W3C//DTD SVG 1.1//EN" "http://www.w3.org/Graphics/SVG/1.1/DTD/svg11.dtd">
<svg width="198mm" height="107mm" viewBox="0 0 19800 10700" version="1.1" baseProfile="tiny" xmlns="http://www.w3.org/2000/svg" stroke-width="28.222" stroke-linejoin="round" xml:space="preserve">
 <path fill="rgb(255,255,255)" stroke="none" d="M 9885,10704 L 0,10704 0,0 19769,0 19769,10704 9885,10704 Z"/>
 <path fill="none" stroke="rgb(179,179,179)" stroke-linejoin="round" d="M 9464,8862 L 2213,8862 2213,1568 16714,1568 16714,8862 9464,8862 Z"/>
 <path fill="none" stroke="rgb(179,179,179)" stroke-linejoin="round" d="M 16714,8861 L 2213,8861"/>
 <path fill="none" stroke="rgb(179,179,179)" stroke-linejoin="round" d="M 16714,7402 L 2213,7402"/>
 <path fill="none" stroke="rgb(179,179,179)" stroke-linejoin="round" d="M 16714,5943 L 2213,5943"/>
 <path fill="none" stroke="rgb(179,179,179)" stroke-linejoin="round" d="M 16714,4485 L 2213,4485"/>
 <path fill="none" stroke="rgb(179,179,179)" stroke-linejoin="round" d="M 16714,3026 L 2213,3026"/>
 <path fill="none" stroke="rgb(179,179,179)" stroke-linejoin="round" d="M 16714,1567 L 2213,1567"/>
 <path fill="none" stroke="rgb(179,179,179)" stroke-linejoin="round" d="M 2213,9011 L 2213,8861"/>
 <path fill="none" stroke="rgb(179,179,179)" stroke-linejoin="round" d="M 2213,9011 L 2213,8861"/>
 <path fill="none" stroke="rgb(179,179,179)" stroke-linejoin="round" d="M 2696,9011 L 2696,8861"/>
 <path fill="none" stroke="rgb(179,179,179)" stroke-linejoin="round" d="M 2696,9011 L 2696,8861"/>
 <path fill="none" stroke="rgb(179,179,179)" stroke-linejoin="round" d="M 3179,9011 L 3179,8861"/>
 <path fill="none" stroke="rgb(179,179,179)" stroke-linejoin="round" d="M 3179,9011 L 3179,8861"/>
 <path fill="none" stroke="rgb(179,179,179)" stroke-linejoin="round" d="M 3663,9011 L 3663,8861"/>
 <path fill="none" stroke="rgb(179,179,179)" stroke-linejoin="round" d="M 3663,9011 L 3663,8861"/>
 <path fill="none" stroke="rgb(179,179,179)" stroke-linejoin="round" d="M 4146,9011 L 4146,8861"/>
 <path fill="none" stroke="rgb(179,179,179)" stroke-linejoin="round" d="M 4146,9011 L 4146,8861"/>
 <path fill="none" stroke="rgb(179,179,179)" stroke-linejoin="round" d="M 4630,9011 L 4630,8861"/>
 <path fill="none" stroke="rgb(179,179,179)" stroke-linejoin="round" d="M 4630,9011 L 4630,8861"/>
 <path fill="none" stroke="rgb(179,179,179)" stroke-linejoin="round" d="M 5113,9011 L 5113,8861"/>
 <path fill="none" stroke="rgb(179,179,179)" stroke-linejoin="round" d="M 5113,9011 L 5113,8861"/>
 <path fill="none" stroke="rgb(179,179,179)" stroke-linejoin="round" d="M 5596,9011 L 5596,8861"/>
 <path fill="none" stroke="rgb(179,179,179)" stroke-linejoin="round" d="M 5596,9011 L 5596,8861"/>
 <path fill="none" stroke="rgb(179,179,179)" stroke-linejoin="round" d="M 6080,9011 L 6080,8861"/>
 <path fill="none" stroke="rgb(179,179,179)" stroke-linejoin="round" d="M 6080,9011 L 6080,8861"/>
 <path fill="none" stroke="rgb(179,179,179)" stroke-linejoin="round" d="M 6563,9011 L 6563,8861"/>
 <path fill="none" stroke="rgb(179,179,179)" stroke-linejoin="round" d="M 6563,9011 L 6563,8861"/>
 <path fill="none" stroke="rgb(179,179,179)" stroke-linejoin="round" d="M 7047,9011 L 7047,8861"/>
 <path fill="none" stroke="rgb(179,179,179)" stroke-linejoin="round" d="M 7047,9011 L 7047,8861"/>
 <path fill="none" stroke="rgb(179,179,179)" stroke-linejoin="round" d="M 7530,9011 L 7530,8861"/>
 <path fill="none" stroke="rgb(179,179,179)" stroke-linejoin="round" d="M 7530,9011 L 7530,8861"/>
 <path fill="none" stroke="rgb(179,179,179)" stroke-linejoin="round" d="M 8013,9011 L 8013,8861"/>
 <path fill="none" stroke="rgb(179,179,179)" stroke-linejoin="round" d="M 8013,9011 L 8013,8861"/>
 <path fill="none" stroke="rgb(179,179,179)" stroke-linejoin="round" d="M 8497,9011 L 8497,8861"/>
 <path fill="none" stroke="rgb(179,179,179)" stroke-linejoin="round" d="M 8497,9011 L 8497,8861"/>
 <path fill="none" stroke="rgb(179,179,179)" stroke-linejoin="round" d="M 8980,9011 L 8980,8861"/>
 <path fill="none" stroke="rgb(179,179,179)" stroke-linejoin="round" d="M 8980,9011 L 8980,8861"/>
 <path fill="none" stroke="rgb(179,179,179)" stroke-linejoin="round" d="M 9464,9011 L 9464,8861"/>
 <path fill="none" stroke="rgb(179,179,179)" stroke-linejoin="round" d="M 9464,9011 L 9464,8861"/>
 <path fill="none" stroke="rgb(179,179,179)" stroke-linejoin="round" d="M 9946,9011 L 9946,8861"/>
 <path fill="none" stroke="rgb(179,179,179)" stroke-linejoin="round" d="M 9946,9011 L 9946,8861"/>
 <path fill="none" stroke="rgb(179,179,179)" stroke-linejoin="round" d="M 10429,9011 L 10429,8861"/>
 <path fill="none" stroke="rgb(179,179,179)" stroke-linejoin="round" d="M 10429,9011 L 10429,8861"/>
 <path fill="none" stroke="rgb(179,179,179)" stroke-linejoin="round" d="M 10913,9011 L 10913,8861"/>
 <path fill="none" stroke="rgb(179,179,179)" stroke-linejoin="round" d="M 10913,9011 L 10913,8861"/>
 <path fill="none" stroke="rgb(179,179,179)" stroke-linejoin="round" d="M 11396,9011 L 11396,8861"/>
 <path fill="none" stroke="rgb(179,179,179)" stroke-linejoin="round" d="M 11396,9011 L 11396,8861"/>
 <path fill="none" stroke="rgb(179,179,179)" stroke-linejoin="round" d="M 11880,9011 L 11880,8861"/>
 <path fill="none" stroke="rgb(179,179,179)" stroke-linejoin="round" d="M 11880,9011 L 11880,8861"/>
 <path fill="none" stroke="rgb(179,179,179)" stroke-linejoin="round" d="M 12363,9011 L 12363,8861"/>
 <path fill="none" stroke="rgb(179,179,179)" stroke-linejoin="round" d="M 12363,9011 L 12363,8861"/>
 <path fill="none" stroke="rgb(179,179,179)" stroke-linejoin="round" d="M 12846,9011 L 12846,8861"/>
 <path fill="none" stroke="rgb(179,179,179)" stroke-linejoin="round" d="M 12846,9011 L 12846,8861"/>
 <path fill="none" stroke="rgb(179,179,179)" stroke-linejoin="round" d="M 13330,9011 L 13330,8861"/>
 <path fill="none" stroke="rgb(179,179,179)" stroke-linejoin="round" d="M 13330,9011 L 13330,8861"/>
 <path fill="none" stroke="rgb(179,179,179)" stroke-linejoin="round" d="M 13813,9011 L 13813,8861"/>
 <path fill="none" stroke="rgb(179,179,179)" stroke-linejoin="round" d="M 13813,9011 L 13813,8861"/>
 <path fill="none" stroke="rgb(179,179,179)" stroke-linejoin="round" d="M 14297,9011 L 14297,8861"/>
 <path fill="none" stroke="rgb(179,179,179)" stroke-linejoin="round" d="M 14297,9011 L 14297,8861"/>
 <path fill="none" stroke="rgb(179,179,179)" stroke-linejoin="round" d="M 14780,9011 L 14780,8861"/>
 <path fill="none" stroke="rgb(179,179,179)" stroke-linejoin="round" d="M 14780,9011 L 14780,8861"/>
 <path fill="none" stroke="rgb(179,179,179)" stroke-linejoin="round" d="M 15263,9011 L 15263,8861"/>
 <path fill="none" stroke="rgb(179,179,179)" stroke-linejoin="round" d="M 15263,9011 L 15263,8861"/>
 <path fill="none" stroke="rgb(179,179,179)" stroke-linejoin="round" d="M 15747,9011 L 15747,8861"/>
 <path fill="none" stroke="rgb(179,179,179)" stroke-linejoin="round" d="M 15747,9011 L 15747,8861"/>
 <path fill="none" stroke="rgb(179,179,179)" stroke-linejoin="round" d="M 16230,9011 L 16230,8861"/>
 <path fill="none" stroke="rgb(179,179,179)" stroke-linejoin="round" d="M 16230,9011 L 16230,8861"/>
 <path fill="none" stroke="rgb(179,179,179)" stroke-linejoin="round" d="M 16714,9011 L 16714,8861"/>
 <path fill="none" stroke="rgb(179,179,179)" stroke-linejoin="round" d="M 16714,9011 L 16714,8861"/>
 <path fill="none" stroke="rgb(179,179,179)" stroke-linejoin="round" d="M 2213,8861 L 16714,8861"/>
 <path fill="none" stroke="rgb(179,179,179)" stroke-linejoin="round" d="M 2063,8861 L 2213,8861"/>
 <path fill="none" stroke="rgb(179,179,179)" stroke-linejoin="round" d="M 2063,8861 L 2213,8861"/>
 <path fill="none" stroke="rgb(179,179,179)" stroke-linejoin="round" d="M 2063,7402 L 2213,7402"/>
 <path fill="none" stroke="rgb(179,179,179)" stroke-linejoin="round" d="M 2063,7402 L 2213,7402"/>
 <path fill="none" stroke="rgb(179,179,179)" stroke-linejoin="round" d="M 2063,5943 L 2213,5943"/>
 <path fill="none" stroke="rgb(179,179,179)" stroke-linejoin="round" d="M 2063,5943 L 2213,5943"/>
 <path fill="none" stroke="rgb(179,179,179)" stroke-linejoin="round" d="M 2063,4485 L 2213,4485"/>
 <path fill="none" stroke="rgb(179,179,179)" stroke-linejoin="round" d="M 2063,4485 L 2213,4485"/>
 <path fill="none" stroke="rgb(179,179,179)" stroke-linejoin="round" d="M 2063,3026 L 2213,3026"/>
 <path fill="none" stroke="rgb(179,179,179)" stroke-linejoin="round" d="M 2063,3026 L 2213,3026"/>
 <path fill="none" stroke="rgb(179,179,179)" stroke-linejoin="round" d="M 2063,1567 L 2213,1567"/>
 <path fill="none" stroke="rgb(179,179,179)" stroke-linejoin="round" d="M 2063,1567 L 2213,1567"/>
 <path fill="none" stroke="rgb(179,179,179)" stroke-linejoin="round" d="M 2213,8861 L 2213,1567"/>
 <path fill="rgb(0,69,134)" stroke="none" d="M 13934,8861 L 14176,8861 14176,8831 13934,8831 13934,8861 Z"/>
 <path fill="rgb(0,69,134)" stroke="none" d="M 12000,8861 L 12242,8861 12242,8831 12000,8831 12000,8861 Z"/>
 <path fill="rgb(0,69,134)" stroke="none" d="M 11034,8861 L 11275,8861 11275,8831 11034,8831 11034,8861 Z"/>
 <path fill="rgb(0,69,134)" stroke="none" d="M 10550,8861 L 10792,8861 10792,8744 10550,8744 10550,8861 Z"/>
 <path fill="rgb(0,69,134)" stroke="none" d="M 10067,8861 L 10308,8861 10308,8831 10067,8831 10067,8861 Z"/>
 <path fill="rgb(0,69,134)" stroke="none" d="M 9584,8861 L 9826,8861 9826,8685 9584,8685 9584,8861 Z"/>
 <path fill="rgb(0,69,134)" stroke="none" d="M 9101,8861 L 9343,8861 9343,8744 9101,8744 9101,8861 Z"/>
 <path fill="rgb(0,69,134)" stroke="none" d="M 8618,8861 L 8859,8861 8859,8598 8618,8598 8618,8861 Z"/>
 <path fill="rgb(0,69,134)" stroke="none" d="M 8134,8861 L 8376,8861 8376,8510 8134,8510 8134,8861 Z"/>
 <path fill="rgb(0,69,134)" stroke="none" d="M 7651,8861 L 7892,8861 7892,8481 7651,8481 7651,8861 Z"/>
 <path fill="rgb(0,69,134)" stroke="none" d="M 7167,8861 L 7409,8861 7409,8423 7167,8423 7167,8861 Z"/>
 <path fill="rgb(0,69,134)" stroke="none" d="M 6684,8861 L 6926,8861 6926,7985 6684,7985 6684,8861 Z"/>
 <path fill="rgb(0,69,134)" stroke="none" d="M 6201,8861 L 6442,8861 6442,7985 6201,7985 6201,8861 Z"/>
 <path fill="rgb(0,69,134)" stroke="none" d="M 5717,8861 L 5959,8861 5959,8131 5717,8131 5717,8861 Z"/>
 <path fill="rgb(0,69,134)" stroke="none" d="M 5234,8861 L 5475,8861 5475,7693 5234,7693 5234,8861 Z"/>
 <path fill="rgb(0,69,134)" stroke="none" d="M 4750,8861 L 4992,8861 4992,6234 4750,6234 4750,8861 Z"/>
 <path fill="rgb(0,69,134)" stroke="none" d="M 4267,8861 L 4509,8861 4509,5359 4267,5359 4267,8861 Z"/>
 <path fill="rgb(0,69,134)" stroke="none" d="M 3784,8861 L 4025,8861 4025,4776 3784,4776 3784,8861 Z"/>
 <path fill="rgb(0,69,134)" stroke="none" d="M 3300,8861 L 3542,8861 3542,4193 3300,4193 3300,8861 Z"/>
 <path fill="rgb(0,69,134)" stroke="none" d="M 2817,8861 L 3058,8861 3058,5943 2817,5943 2817,8861 Z"/>
 <path fill="rgb(0,69,134)" stroke="none" d="M 2333,8861 L 2575,8861 2575,5126 2333,5126 2333,8861 Z"/>
 <path fill="rgb(255,66,14)" stroke="none" d="M 16351,8861 L 16593,8861 16593,8627 16351,8627 16351,8861 Z"/>
 <path fill="rgb(255,66,14)" stroke="none" d="M 15868,8861 L 16109,8861 16109,8627 15868,8627 15868,8861 Z"/>
 <path fill="rgb(255,66,14)" stroke="none" d="M 15384,8861 L 15626,8861 15626,8569 15384,8569 15384,8861 Z"/>
 <path fill="rgb(255,66,14)" stroke="none" d="M 14901,8861 L 15142,8861 15142,8744 14901,8744 14901,8861 Z"/>
 <path fill="rgb(255,66,14)" stroke="none" d="M 14417,8861 L 14659,8861 14659,8773 14417,8773 14417,8861 Z"/>
 <path fill="rgb(255,66,14)" stroke="none" d="M 13934,8831 L 14176,8831 14176,8802 13934,8802 13934,8831 Z"/>
 <path fill="rgb(255,66,14)" stroke="none" d="M 13451,8861 L 13692,8861 13692,8598 13451,8598 13451,8861 Z"/>
 <path fill="rgb(255,66,14)" stroke="none" d="M 12967,8861 L 13209,8861 13209,8627 12967,8627 12967,8861 Z"/>
 <path fill="rgb(255,66,14)" stroke="none" d="M 12484,8861 L 12725,8861 12725,8481 12484,8481 12484,8861 Z"/>
 <path fill="rgb(255,66,14)" stroke="none" d="M 12000,8831 L 12242,8831 12242,8481 12000,8481 12000,8831 Z"/>
 <path fill="rgb(255,66,14)" stroke="none" d="M 11517,8861 L 11759,8861 11759,8364 11517,8364 11517,8861 Z"/>
 <path fill="rgb(255,66,14)" stroke="none" d="M 11034,8831 L 11275,8831 11275,8452 11034,8452 11034,8831 Z"/>
 <path fill="rgb(255,66,14)" stroke="none" d="M 10550,8744 L 10792,8744 10792,8189 10550,8189 10550,8744 Z"/>
 <path fill="rgb(255,66,14)" stroke="none" d="M 10067,8831 L 10308,8831 10308,8540 10067,8540 10067,8831 Z"/>
 <path fill="rgb(255,66,14)" stroke="none" d="M 9584,8685 L 9826,8685 9826,7810 9584,7810 9584,8685 Z"/>
 <path fill="rgb(255,66,14)" stroke="none" d="M 9101,8744 L 9343,8744 9343,7985 9101,7985 9101,8744 Z"/>
 <path fill="rgb(255,66,14)" stroke="none" d="M 8618,8598 L 8859,8598 8859,7431 8618,7431 8618,8598 Z"/>
 <path fill="rgb(255,66,14)" stroke="none" d="M 8134,8510 L 8376,8510 8376,7343 8134,7343 8134,8510 Z"/>
 <path fill="rgb(255,66,14)" stroke="none" d="M 7651,8481 L 7892,8481 7892,7022 7651,7022 7651,8481 Z"/>
 <path fill="rgb(255,66,14)" stroke="none" d="M 7167,8423 L 7409,8423 7409,6234 7167,6234 7167,8423 Z"/>
 <path fill="rgb(255,66,14)" stroke="none" d="M 6684,7985 L 6926,7985 6926,6526 6684,6526 6684,7985 Z"/>
 <path fill="rgb(255,66,14)" stroke="none" d="M 6201,7985 L 6442,7985 6442,5651 6201,5651 6201,7985 Z"/>
 <path fill="rgb(255,66,14)" stroke="none" d="M 5717,8131 L 5959,8131 5959,5943 5717,5943 5717,8131 Z"/>
 <path fill="rgb(255,66,14)" stroke="none" d="M 5234,7693 L 5475,7693 5475,4981 5234,4981 5234,7693 Z"/>
 <path fill="rgb(255,66,14)" stroke="none" d="M 4750,6234 L 4992,6234 4992,3522 4750,3522 4750,6234 Z"/>
 <path fill="rgb(255,66,14)" stroke="none" d="M 4267,5359 L 4509,5359 4509,2938 4267,2938 4267,5359 Z"/>
 <path fill="rgb(255,66,14)" stroke="none" d="M 3784,4776 L 4025,4776 4025,2705 3784,2705 3784,4776 Z"/>
 <path fill="rgb(255,66,14)" stroke="none" d="M 3300,4193 L 3542,4193 3542,3288 3300,3288 3300,4193 Z"/>
 <path fill="rgb(255,66,14)" stroke="none" d="M 2817,5943 L 3058,5943 3058,4543 2817,4543 2817,5943 Z"/>
 <text class="TextShape"><tspan class="TextParagraph" font-family="Liberation Sans, sans-serif" font-size="353px" font-weight="400"><tspan class="TextPosition" x="2361" y="9429"/><tspan class="TextPosition" x="2361" y="9429"><tspan fill="rgb(0,0,0)" stroke="none">1</tspan></tspan></tspan></text>
 <text class="TextShape"><tspan class="TextParagraph" font-family="Liberation Sans, sans-serif" font-size="353px" font-weight="400"><tspan class="TextPosition" x="2845" y="9429"/><tspan class="TextPosition" x="2845" y="9429"><tspan fill="rgb(0,0,0)" stroke="none">2</tspan></tspan></tspan></text>
 <text class="TextShape"><tspan class="TextParagraph" font-family="Liberation Sans, sans-serif" font-size="353px" font-weight="400"><tspan class="TextPosition" x="3328" y="9429"/><tspan class="TextPosition" x="3328" y="9429"><tspan fill="rgb(0,0,0)" stroke="none">3</tspan></tspan></tspan></text>
 <text class="TextShape"><tspan class="TextParagraph" font-family="Liberation Sans, sans-serif" font-size="353px" font-weight="400"><tspan class="TextPosition" x="3811" y="9429"/><tspan class="TextPosition" x="3811" y="9429"><tspan fill="rgb(0,0,0)" stroke="none">4</tspan></tspan></tspan></text>
 <text class="TextShape"><tspan class="TextParagraph" font-family="Liberation Sans, sans-serif" font-size="353px" font-weight="400"><tspan class="TextPosition" x="4295" y="9429"/><tspan class="TextPosition" x="4295" y="9429"><tspan fill="rgb(0,0,0)" stroke="none">5</tspan></tspan></tspan></text>
 <text class="TextShape"><tspan class="TextParagraph" font-family="Liberation Sans, sans-serif" font-size="353px" font-weight="400"><tspan class="TextPosition" x="4778" y="9429"/><tspan class="TextPosition" x="4778" y="9429"><tspan fill="rgb(0,0,0)" stroke="none">6</tspan></tspan></tspan></text>
 <text class="TextShape"><tspan class="TextParagraph" font-family="Liberation Sans, sans-serif" font-size="353px" font-weight="400"><tspan class="TextPosition" x="5262" y="9429"/><tspan class="TextPosition" x="5262" y="9429"><tspan fill="rgb(0,0,0)" stroke="none">7</tspan></tspan></tspan></text>
 <text class="TextShape"><tspan class="TextParagraph" font-family="Liberation Sans, sans-serif" font-size="353px" font-weight="400"><tspan class="TextPosition" x="5745" y="9429"/><tspan class="TextPosition" x="5745" y="9429"><tspan fill="rgb(0,0,0)" stroke="none">8</tspan></tspan></tspan></text>
 <text class="TextShape"><tspan class="TextParagraph" font-family="Liberation Sans, sans-serif" font-size="353px" font-weight="400"><tspan class="TextPosition" x="6228" y="9429"/><tspan class="TextPosition" x="6228" y="9429"><tspan fill="rgb(0,0,0)" stroke="none">9</tspan></tspan></tspan></text>
 <text class="TextShape"><tspan class="TextParagraph" font-family="Liberation Sans, sans-serif" font-size="353px" font-weight="400"><tspan class="TextPosition" x="6620" y="9429"/><tspan class="TextPosition" x="6620" y="9429"><tspan fill="rgb(0,0,0)" stroke="none">10</tspan></tspan></tspan></text>
 <text class="TextShape"><tspan class="TextParagraph" font-family="Liberation Sans, sans-serif" font-size="353px" font-weight="400"><tspan class="TextPosition" x="7103" y="9429"/><tspan class="TextPosition" x="7103" y="9429"><tspan fill="rgb(0,0,0)" stroke="none">11</tspan></tspan></tspan></text>
 <text class="TextShape"><tspan class="TextParagraph" font-family="Liberation Sans, sans-serif" font-size="353px" font-weight="400"><tspan class="TextPosition" x="7587" y="9429"/><tspan class="TextPosition" x="7587" y="9429"><tspan fill="rgb(0,0,0)" stroke="none">12</tspan></tspan></tspan></text>
 <text class="TextShape"><tspan class="TextParagraph" font-family="Liberation Sans, sans-serif" font-size="353px" font-weight="400"><tspan class="TextPosition" x="8070" y="9429"/><tspan class="TextPosition" x="8070" y="9429"><tspan fill="rgb(0,0,0)" stroke="none">13</tspan></tspan></tspan></text>
 <text class="TextShape"><tspan class="TextParagraph" font-family="Liberation Sans, sans-serif" font-size="353px" font-weight="400"><tspan class="TextPosition" x="8553" y="9429"/><tspan class="TextPosition" x="8553" y="9429"><tspan fill="rgb(0,0,0)" stroke="none">14</tspan></tspan></tspan></text>
 <text class="TextShape"><tspan class="TextParagraph" font-family="Liberation Sans, sans-serif" font-size="353px" font-weight="400"><tspan class="TextPosition" x="9037" y="9429"/><tspan class="TextPosition" x="9037" y="9429"><tspan fill="rgb(0,0,0)" stroke="none">15</tspan></tspan></tspan></text>
 <text class="TextShape"><tspan class="TextParagraph" font-family="Liberation Sans, sans-serif" font-size="353px" font-weight="400"><tspan class="TextPosition" x="9520" y="9429"/><tspan class="TextPosition" x="9520" y="9429"><tspan fill="rgb(0,0,0)" stroke="none">16</tspan></tspan></tspan></text>
 <text class="TextShape"><tspan class="TextParagraph" font-family="Liberation Sans, sans-serif" font-size="353px" font-weight="400"><tspan class="TextPosition" x="10004" y="9429"/><tspan class="TextPosition" x="10004" y="9429"><tspan fill="rgb(0,0,0)" stroke="none">17</tspan></tspan></tspan></text>
 <text class="TextShape"><tspan class="TextParagraph" font-family="Liberation Sans, sans-serif" font-size="353px" font-weight="400"><tspan class="TextPosition" x="10487" y="9429"/><tspan class="TextPosition" x="10487" y="9429"><tspan fill="rgb(0,0,0)" stroke="none">18</tspan></tspan></tspan></text>
 <text class="TextShape"><tspan class="TextParagraph" font-family="Liberation Sans, sans-serif" font-size="353px" font-weight="400"><tspan class="TextPosition" x="10970" y="9429"/><tspan class="TextPosition" x="10970" y="9429"><tspan fill="rgb(0,0,0)" stroke="none">19</tspan></tspan></tspan></text>
 <text class="TextShape"><tspan class="TextParagraph" font-family="Liberation Sans, sans-serif" font-size="353px" font-weight="400"><tspan class="TextPosition" x="11454" y="9429"/><tspan class="TextPosition" x="11454" y="9429"><tspan fill="rgb(0,0,0)" stroke="none">20</tspan></tspan></tspan></text>
 <text class="TextShape"><tspan class="TextParagraph" font-family="Liberation Sans, sans-serif" font-size="353px" font-weight="400"><tspan class="TextPosition" x="11937" y="9429"/><tspan class="TextPosition" x="11937" y="9429"><tspan fill="rgb(0,0,0)" stroke="none">21</tspan></tspan></tspan></text>
 <text class="TextShape"><tspan class="TextParagraph" font-family="Liberation Sans, sans-serif" font-size="353px" font-weight="400"><tspan class="TextPosition" x="12421" y="9429"/><tspan class="TextPosition" x="12421" y="9429"><tspan fill="rgb(0,0,0)" stroke="none">22</tspan></tspan></tspan></text>
 <text class="TextShape"><tspan class="TextParagraph" font-family="Liberation Sans, sans-serif" font-size="353px" font-weight="400"><tspan class="TextPosition" x="12904" y="9429"/><tspan class="TextPosition" x="12904" y="9429"><tspan fill="rgb(0,0,0)" stroke="none">23</tspan></tspan></tspan></text>
 <text class="TextShape"><tspan class="TextParagraph" font-family="Liberation Sans, sans-serif" font-size="353px" font-weight="400"><tspan class="TextPosition" x="13387" y="9429"/><tspan class="TextPosition" x="13387" y="9429"><tspan fill="rgb(0,0,0)" stroke="none">24</tspan></tspan></tspan></text>
 <text class="TextShape"><tspan class="TextParagraph" font-family="Liberation Sans, sans-serif" font-size="353px" font-weight="400"><tspan class="TextPosition" x="13871" y="9429"/><tspan class="TextPosition" x="13871" y="9429"><tspan fill="rgb(0,0,0)" stroke="none">25</tspan></tspan></tspan></text>
 <text class="TextShape"><tspan class="TextParagraph" font-family="Liberation Sans, sans-serif" font-size="353px" font-weight="400"><tspan class="TextPosition" x="14354" y="9429"/><tspan class="TextPosition" x="14354" y="9429"><tspan fill="rgb(0,0,0)" stroke="none">26</tspan></tspan></tspan></text>
 <text class="TextShape"><tspan class="TextParagraph" font-family="Liberation Sans, sans-serif" font-size="353px" font-weight="400"><tspan class="TextPosition" x="14838" y="9429"/><tspan class="TextPosition" x="14838" y="9429"><tspan fill="rgb(0,0,0)" stroke="none">27</tspan></tspan></tspan></text>
 <text class="TextShape"><tspan class="TextParagraph" font-family="Liberation Sans, sans-serif" font-size="353px" font-weight="400"><tspan class="TextPosition" x="15321" y="9429"/><tspan class="TextPosition" x="15321" y="9429"><tspan fill="rgb(0,0,0)" stroke="none">28</tspan></tspan></tspan></text>
 <text class="TextShape"><tspan class="TextParagraph" font-family="Liberation Sans, sans-serif" font-size="353px" font-weight="400"><tspan class="TextPosition" x="15804" y="9429"/><tspan class="TextPosition" x="15804" y="9429"><tspan fill="rgb(0,0,0)" stroke="none">29</tspan></tspan></tspan></text>
 <text class="TextShape"><tspan class="TextParagraph" font-family="Liberation Sans, sans-serif" font-size="353px" font-weight="400"><tspan class="TextPosition" x="16288" y="9429"/><tspan class="TextPosition" x="16288" y="9429"><tspan fill="rgb(0,0,0)" stroke="none">30</tspan></tspan></tspan></text>
 <text class="TextShape"><tspan class="TextParagraph" font-family="Liberation Sans, sans-serif" font-size="353px" font-weight="400"><tspan class="TextPosition" x="1778" y="8982"/><tspan class="TextPosition" x="1778" y="8982"><tspan fill="rgb(0,0,0)" stroke="none">0</tspan></tspan></tspan></text>
 <text class="TextShape"><tspan class="TextParagraph" font-family="Liberation Sans, sans-serif" font-size="353px" font-weight="400"><tspan class="TextPosition" x="1593" y="7523"/><tspan class="TextPosition" x="1593" y="7523"><tspan fill="rgb(0,0,0)" stroke="none">50</tspan></tspan></tspan></text>
 <text class="TextShape"><tspan class="TextParagraph" font-family="Liberation Sans, sans-serif" font-size="353px" font-weight="400"><tspan class="TextPosition" x="1407" y="6064"/><tspan class="TextPosition" x="1407" y="6064"><tspan fill="rgb(0,0,0)" stroke="none">100</tspan></tspan></tspan></text>
 <text class="TextShape"><tspan class="TextParagraph" font-family="Liberation Sans, sans-serif" font-size="353px" font-weight="400"><tspan class="TextPosition" x="1407" y="4605"/><tspan class="TextPosition" x="1407" y="4605"><tspan fill="rgb(0,0,0)" stroke="none">150</tspan></tspan></tspan></text>
 <text class="TextShape"><tspan class="TextParagraph" font-family="Liberation Sans, sans-serif" font-size="353px" font-weight="400"><tspan class="TextPosition" x="1407" y="3146"/><tspan class="TextPosition" x="1407" y="3146"><tspan fill="rgb(0,0,0)" stroke="none">200</tspan></tspan></tspan></text>
 <text class="TextShape"><tspan class="TextParagraph" font-family="Liberation Sans, sans-serif" font-size="353px" font-weight="400"><tspan class="TextPosition" x="1407" y="1687"/><tspan class="TextPosition" x="1407" y="1687"><tspan fill="rgb(0,0,0)" stroke="none">250</tspan></tspan></tspan></text>
 <text class="TextShape"><tspan class="TextParagraph" font-family="Liberation Sans, sans-serif" font-size="459px" font-weight="400"><tspan class="TextPosition" x="7305" y="911"/><tspan class="TextPosition" x="7305" y="911"><tspan fill="rgb(0,0,0)" stroke="none">Total Words in a Sentence</tspan></tspan></tspan></text>
 <path fill="rgb(0,69,134)" stroke="none" d="M 17331,5705 L 17225,5705 17225,5494 17436,5494 17436,5705 17331,5705 Z"/>
 <path fill="rgb(255,66,14)" stroke="none" d="M 17331,5208 L 17225,5208 17225,4997 17436,4997 17436,5208 17331,5208 Z"/>
 <text class="TextShape"><tspan class="TextParagraph" font-family="Liberation Sans, sans-serif" font-size="353px" font-weight="400"><tspan class="TextPosition" x="17536" y="5222"/><tspan class="TextPosition" x="17536" y="5222"><tspan fill="rgb(0,0,0)" stroke="none">Class “YES”</tspan></tspan></tspan></text>
 <text class="TextShape"><tspan class="TextParagraph" font-family="Liberation Sans, sans-serif" font-size="353px" font-weight="400"><tspan class="TextPosition" x="17536" y="5719"/><tspan class="TextPosition" x="17536" y="5719"><tspan fill="rgb(0,0,0)" stroke="none">Class “NO”</tspan></tspan></tspan></text>
 <text class="TextShape"><tspan class="TextParagraph" font-family="Liberation Sans, sans-serif" font-size="318px" font-weight="400"><tspan class="TextPosition" x="7115" y="10110"/><tspan class="TextPosition" x="7115" y="10110"><tspan fill="rgb(0,0,0)" stroke="none">No. of Words in a Sentence</tspan></tspan></tspan></text>
 <text class="TextShape"><tspan class="TextParagraph" font-family="Liberation Sans, sans-serif" font-size="318px" font-weight="400"><tspan class="TextPosition" x="837" y="6669" transform="translate(837,6669) rotate(-90) translate(-837,-6669)"/><tspan class="TextPosition" x="837" y="6669" transform="translate(837,6669) rotate(-90) translate(-837,-6669)"><tspan fill="rgb(0,0,0)" stroke="none">No. of Sentences</tspan></tspan></tspan></text>
</svg>