<?xml version="1.0" encoding="UTF-8"?>
<!DOCTYPE svg PUBLIC "-//W3C//DTD SVG 1.1//EN" "http://www.w3.org/Graphics/SVG/1.1/DTD/svg11.dtd">
<svg width="198mm" height="107mm" viewBox="0 0 19800 10700" version="1.1" baseProfile="tiny" xmlns="http://www.w3.org/2000/svg" stroke-width="28.222" stroke-linejoin="round" xml:space="preserve">
 <path fill="rgb(255,255,255)" stroke="none" d="M 9885,10704 L 0,10704 0,0 19769,0 19769,10704 9885,10704 Z"/>
 <path fill="none" stroke="rgb(179,179,179)" stroke-linejoin="round" d="M 9464,8862 L 2213,8862 2213,1568 16714,1568 16714,8862 9464,8862 Z"/>
 <path fill="none" stroke="rgb(179,179,179)" stroke-linejoin="round" d="M 16714,8861 L 2213,8861"/>
 <path fill="none" stroke="rgb(179,179,179)" stroke-linejoin="round" d="M 16714,7818 L 2213,7818"/>
 <path fill="none" stroke="rgb(179,179,179)" stroke-linejoin="round" d="M 16714,6776 L 2213,6776"/>
 <path fill="none" stroke="rgb(179,179,179)" stroke-linejoin="round" d="M 16714,5734 L 2213,5734"/>
 <path fill="none" stroke="rgb(179,179,179)" stroke-linejoin="round" d="M 16714,4693 L 2213,4693"/>
 <path fill="none" stroke="rgb(179,179,179)" stroke-linejoin="round" d="M 16714,3651 L 2213,3651"/>
 <path fill="none" stroke="rgb(179,179,179)" stroke-linejoin="round" d="M 16714,2609 L 2213,2609"/>
 <path fill="none" stroke="rgb(179,179,179)" stroke-linejoin="round" d="M 16714,1566 L 2213,1566"/>
 <path fill="none" stroke="rgb(179,179,179)" stroke-linejoin="round" d="M 2213,9011 L 2213,8861"/>
 <path fill="none" stroke="rgb(179,179,179)" stroke-linejoin="round" d="M 2213,9011 L 2213,8861"/>
 <path fill="none" stroke="rgb(179,179,179)" stroke-linejoin="round" d="M 3824,9011 L 3824,8861"/>
 <path fill="none" stroke="rgb(179,179,179)" stroke-linejoin="round" d="M 3824,9011 L 3824,8861"/>
 <path fill="none" stroke="rgb(179,179,179)" stroke-linejoin="round" d="M 5435,9011 L 5435,8861"/>
 <path fill="none" stroke="rgb(179,179,179)" stroke-linejoin="round" d="M 5435,9011 L 5435,8861"/>
 <path fill="none" stroke="rgb(179,179,179)" stroke-linejoin="round" d="M 7047,9011 L 7047,8861"/>
 <path fill="none" stroke="rgb(179,179,179)" stroke-linejoin="round" d="M 7047,9011 L 7047,8861"/>
 <path fill="none" stroke="rgb(179,179,179)" stroke-linejoin="round" d="M 8658,9011 L 8658,8861"/>
 <path fill="none" stroke="rgb(179,179,179)" stroke-linejoin="round" d="M 8658,9011 L 8658,8861"/>
 <path fill="none" stroke="rgb(179,179,179)" stroke-linejoin="round" d="M 10268,9011 L 10268,8861"/>
 <path fill="none" stroke="rgb(179,179,179)" stroke-linejoin="round" d="M 10268,9011 L 10268,8861"/>
 <path fill="none" stroke="rgb(179,179,179)" stroke-linejoin="round" d="M 11880,9011 L 11880,8861"/>
 <path fill="none" stroke="rgb(179,179,179)" stroke-linejoin="round" d="M 11880,9011 L 11880,8861"/>
 <path fill="none" stroke="rgb(179,179,179)" stroke-linejoin="round" d="M 13491,9011 L 13491,8861"/>
 <path fill="none" stroke="rgb(179,179,179)" stroke-linejoin="round" d="M 13491,9011 L 13491,8861"/>
 <path fill="none" stroke="rgb(179,179,179)" stroke-linejoin="round" d="M 15102,9011 L 15102,8861"/>
 <path fill="none" stroke="rgb(179,179,179)" stroke-linejoin="round" d="M 15102,9011 L 15102,8861"/>
 <path fill="none" stroke="rgb(179,179,179)" stroke-linejoin="round" d="M 16714,9011 L 16714,8861"/>
 <path fill="none" stroke="rgb(179,179,179)" stroke-linejoin="round" d="M 16714,9011 L 16714,8861"/>
 <path fill="none" stroke="rgb(179,179,179)" stroke-linejoin="round" d="M 2213,8861 L 16714,8861"/>
 <path fill="none" stroke="rgb(179,179,179)" stroke-linejoin="round" d="M 2063,8861 L 2213,8861"/>
 <path fill="none" stroke="rgb(179,179,179)" stroke-linejoin="round" d="M 2063,8861 L 2213,8861"/>
 <path fill="none" stroke="rgb(179,179,179)" stroke-linejoin="round" d="M 2063,7818 L 2213,7818"/>
 <path fill="none" stroke="rgb(179,179,179)" stroke-linejoin="round" d="M 2063,7818 L 2213,7818"/>
 <path fill="none" stroke="rgb(179,179,179)" stroke-linejoin="round" d="M 2063,6776 L 2213,6776"/>
 <path fill="none" stroke="rgb(179,179,179)" stroke-linejoin="round" d="M 2063,6776 L 2213,6776"/>
 <path fill="none" stroke="rgb(179,179,179)" stroke-linejoin="round" d="M 2063,5734 L 2213,5734"/>
 <path fill="none" stroke="rgb(179,179,179)" stroke-linejoin="round" d="M 2063,5734 L 2213,5734"/>
 <path fill="none" stroke="rgb(179,179,179)" stroke-linejoin="round" d="M 2063,4693 L 2213,4693"/>
 <path fill="none" stroke="rgb(179,179,179)" stroke-linejoin="round" d="M 2063,4693 L 2213,4693"/>
 <path fill="none" stroke="rgb(179,179,179)" stroke-linejoin="round" d="M 2063,3651 L 2213,3651"/>
 <path fill="none" stroke="rgb(179,179,179)" stroke-linejoin="round" d="M 2063,3651 L 2213,3651"/>
 <path fill="none" stroke="rgb(179,179,179)" stroke-linejoin="round" d="M 2063,2609 L 2213,2609"/>
 <path fill="none" stroke="rgb(179,179,179)" stroke-linejoin="round" d="M 2063,2609 L 2213,2609"/>
 <path fill="none" stroke="rgb(179,179,179)" stroke-linejoin="round" d="M 2063,1566 L 2213,1566"/>
 <path fill="none" stroke="rgb(179,179,179)" stroke-linejoin="round" d="M 2063,1566 L 2213,1566"/>
 <path fill="none" stroke="rgb(179,179,179)" stroke-linejoin="round" d="M 2213,8861 L 2213,1566"/>
 <path fill="rgb(0,69,134)" stroke="none" d="M 10671,8861 L 11477,8861 11477,8339 10671,8339 10671,8861 Z"/>
 <path fill="rgb(0,69,134)" stroke="none" d="M 9061,8861 L 9866,8861 9866,7818 9061,7818 9061,8861 Z"/>
 <path fill="rgb(0,69,134)" stroke="none" d="M 7449,8861 L 8255,8861 8255,6985 7449,6985 7449,8861 Z"/>
 <path fill="rgb(0,69,134)" stroke="none" d="M 5838,8861 L 6644,8861 6644,7714 5838,7714 5838,8861 Z"/>
 <path fill="rgb(0,69,134)" stroke="none" d="M 4227,8861 L 5032,8861 5032,8767 4227,8767 4227,8861 Z"/>
 <path fill="rgb(0,69,134)" stroke="none" d="M 2615,8861 L 3421,8861 3421,8735 2615,8735 2615,8861 Z"/>
 <path fill="rgb(255,66,14)" stroke="none" d="M 15505,8861 L 16311,8861 16311,8829 15505,8829 15505,8861 Z"/>
 <path fill="rgb(255,66,14)" stroke="none" d="M 13894,8861 L 14699,8861 14699,8767 13894,8767 13894,8861 Z"/>
 <path fill="rgb(255,66,14)" stroke="none" d="M 12282,8861 L 13088,8861 13088,8548 12282,8548 12282,8861 Z"/>
 <path fill="rgb(255,66,14)" stroke="none" d="M 10671,8339 L 11477,8339 11477,7714 10671,7714 10671,8339 Z"/>
 <path fill="rgb(255,66,14)" stroke="none" d="M 9061,7818 L 9866,7818 9866,4484 9061,4484 9061,7818 Z"/>
 <path fill="rgb(255,66,14)" stroke="none" d="M 7449,6985 L 8255,6985 8255,2817 7449,2817 7449,6985 Z"/>
 <path fill="rgb(255,66,14)" stroke="none" d="M 5838,7714 L 6644,7714 6644,7193 5838,7193 5838,7714 Z"/>
 <text class="TextShape"><tspan class="TextParagraph" font-family="Liberation Sans" font-size="353px" font-weight="400"><tspan class="TextPosition" x="2925" y="9429"/><tspan class="TextPosition" x="2925" y="9429"><tspan fill="rgb(0,0,0)" stroke="none">1</tspan></tspan></tspan></text>
 <text class="TextShape"><tspan class="TextParagraph" font-family="Liberation Sans" font-size="353px" font-weight="400"><tspan class="TextPosition" x="4537" y="9429"/><tspan class="TextPosition" x="4537" y="9429"><tspan fill="rgb(0,0,0)" stroke="none">2</tspan></tspan></tspan></text>
 <text class="TextShape"><tspan class="TextParagraph" font-family="Liberation Sans" font-size="353px" font-weight="400"><tspan class="TextPosition" x="6148" y="9429"/><tspan class="TextPosition" x="6148" y="9429"><tspan fill="rgb(0,0,0)" stroke="none">3</tspan></tspan></tspan></text>
 <text class="TextShape"><tspan class="TextParagraph" font-family="Liberation Sans" font-size="353px" font-weight="400"><tspan class="TextPosition" x="7759" y="9429"/><tspan class="TextPosition" x="7759" y="9429"><tspan fill="rgb(0,0,0)" stroke="none">4</tspan></tspan></tspan></text>
 <text class="TextShape"><tspan class="TextParagraph" font-family="Liberation Sans" font-size="353px" font-weight="400"><tspan class="TextPosition" x="9371" y="9429"/><tspan class="TextPosition" x="9371" y="9429"><tspan fill="rgb(0,0,0)" stroke="none">5</tspan></tspan></tspan></text>
 <text class="TextShape"><tspan class="TextParagraph" font-family="Liberation Sans" font-size="353px" font-weight="400"><tspan class="TextPosition" x="10982" y="9429"/><tspan class="TextPosition" x="10982" y="9429"><tspan fill="rgb(0,0,0)" stroke="none">6</tspan></tspan></tspan></text>
 <text class="TextShape"><tspan class="TextParagraph" font-family="Liberation Sans" font-size="353px" font-weight="400"><tspan class="TextPosition" x="12593" y="9429"/><tspan class="TextPosition" x="12593" y="9429"><tspan fill="rgb(0,0,0)" stroke="none">7</tspan></tspan></tspan></text>
 <text class="TextShape"><tspan class="TextParagraph" font-family="Liberation Sans" font-size="353px" font-weight="400"><tspan class="TextPosition" x="14204" y="9429"/><tspan class="TextPosition" x="14204" y="9429"><tspan fill="rgb(0,0,0)" stroke="none">8</tspan></tspan></tspan></text>
 <text class="TextShape"><tspan class="TextParagraph" font-family="Liberation Sans" font-size="353px" font-weight="400"><tspan class="TextPosition" x="15816" y="9429"/><tspan class="TextPosition" x="15816" y="9429"><tspan fill="rgb(0,0,0)" stroke="none">9</tspan></tspan></tspan></text>
 <text class="TextShape"><tspan class="TextParagraph" font-family="Liberation Sans" font-size="353px" font-weight="400"><tspan class="TextPosition" x="1778" y="8982"/><tspan class="TextPosition" x="1778" y="8982"><tspan fill="rgb(0,0,0)" stroke="none">0</tspan></tspan></tspan></text>
 <text class="TextShape"><tspan class="TextParagraph" font-family="Liberation Sans" font-size="353px" font-weight="400"><tspan class="TextPosition" x="1407" y="7939"/><tspan class="TextPosition" x="1407" y="7939"><tspan fill="rgb(0,0,0)" stroke="none">100</tspan></tspan></tspan></text>
 <text class="TextShape"><tspan class="TextParagraph" font-family="Liberation Sans" font-size="353px" font-weight="400"><tspan class="TextPosition" x="1407" y="6897"/><tspan class="TextPosition" x="1407" y="6897"><tspan fill="rgb(0,0,0)" stroke="none">200</tspan></tspan></tspan></text>
 <text class="TextShape"><tspan class="TextParagraph" font-family="Liberation Sans" font-size="353px" font-weight="400"><tspan class="TextPosition" x="1407" y="5855"/><tspan class="TextPosition" x="1407" y="5855"><tspan fill="rgb(0,0,0)" stroke="none">300</tspan></tspan></tspan></text>
 <text class="TextShape"><tspan class="TextParagraph" font-family="Liberation Sans" font-size="353px" font-weight="400"><tspan class="TextPosition" x="1407" y="4813"/><tspan class="TextPosition" x="1407" y="4813"><tspan fill="rgb(0,0,0)" stroke="none">400</tspan></tspan></tspan></text>
 <text class="TextShape"><tspan class="TextParagraph" font-family="Liberation Sans" font-size="353px" font-weight="400"><tspan class="TextPosition" x="1407" y="3771"/><tspan class="TextPosition" x="1407" y="3771"><tspan fill="rgb(0,0,0)" stroke="none">500</tspan></tspan></tspan></text>
 <text class="TextShape"><tspan class="TextParagraph" font-family="Liberation Sans" font-size="353px" font-weight="400"><tspan class="TextPosition" x="1407" y="2729"/><tspan class="TextPosition" x="1407" y="2729"><tspan fill="rgb(0,0,0)" stroke="none">600</tspan></tspan></tspan></text>
 <text class="TextShape"><tspan class="TextParagraph" font-family="Liberation Sans" font-size="353px" font-weight="400"><tspan class="TextPosition" x="1407" y="1686"/><tspan class="TextPosition" x="1407" y="1686"><tspan fill="rgb(0,0,0)" stroke="none">700</tspan></tspan></tspan></text>
 <text class="TextShape"><tspan class="TextParagraph" font-family="Liberation Sans" font-size="459px" font-weight="400"><tspan class="TextPosition" x="8033" y="911"/><tspan class="TextPosition" x="8033" y="911"><tspan fill="rgb(0,0,0)" stroke="none">Word Mean Length</tspan></tspan></tspan></text>
 <path fill="rgb(0,69,134)" stroke="none" d="M 17331,5705 L 17225,5705 17225,5494 17436,5494 17436,5705 17331,5705 Z"/>
 <path fill="rgb(255,66,14)" stroke="none" d="M 17331,5208 L 17225,5208 17225,4997 17436,4997 17436,5208 17331,5208 Z"/>
 <text class="TextShape"><tspan class="TextParagraph" font-family="Liberation Sans" font-size="353px" font-weight="400"><tspan class="TextPosition" x="17536" y="5222"/><tspan class="TextPosition" x="17536" y="5222"><tspan fill="rgb(0,0,0)" stroke="none">Class “YES”</tspan></tspan></tspan></text>
 <text class="TextShape"><tspan class="TextParagraph" font-family="Liberation Sans" font-size="353px" font-weight="400"><tspan class="TextPosition" x="17536" y="5719"/><tspan class="TextPosition" x="17536" y="5719"><tspan fill="rgb(0,0,0)" stroke="none">Class “NO”</tspan></tspan></tspan></text>
 <text class="TextShape"><tspan class="TextParagraph" font-family="Liberation Sans" font-size="318px" font-weight="400"><tspan class="TextPosition" x="7697" y="10110"/><tspan class="TextPosition" x="7697" y="10110"><tspan fill="rgb(0,0,0)" stroke="none">Word Mean Length</tspan></tspan></tspan></text>
 <text class="TextShape"><tspan class="TextParagraph" font-family="Liberation Sans" font-size="318px" font-weight="400"><tspan class="TextPosition" x="837" y="6669" transform="translate(837,6669) rotate(-90) translate(-837,-6669)"/><tspan class="TextPosition" x="837" y="6669" transform="translate(837,6669) rotate(-90) translate(-837,-6669)"><tspan fill="rgb(0,0,0)" stroke="none">No. of Sentences</tspan></tspan></tspan></text>
</svg>