<?xml version="1.0" encoding="UTF-8"?>
<!DOCTYPE svg PUBLIC "-//W3C//DTD SVG 1.1//EN" "http://www.w3.org/Graphics/SVG/1.1/DTD/svg11.dtd">
<svg width="213mm" height="123mm" viewBox="0 0 21300 12300" version="1.1" baseProfile="tiny" xmlns="http://www.w3.org/2000/svg" stroke-width="28.222" stroke-linejoin="round" xml:space="preserve">
 <path fill="rgb(255,255,255)" stroke="none" d="M 10675,12298 L 8,12298 8,0 21342,0 21342,12298 10675,12298 Z"/>
 <path fill="none" stroke="rgb(179,179,179)" stroke-linejoin="round" d="M 11589,10425 L 2357,10425 2357,1630 20822,1630 20822,10425 11589,10425 Z"/>
 <path fill="none" stroke="rgb(179,179,179)" stroke-linejoin="round" d="M 2357,1629 L 2357,10424"/>
 <path fill="none" stroke="rgb(179,179,179)" stroke-linejoin="round" d="M 4665,1629 L 4665,10424"/>
 <path fill="none" stroke="rgb(179,179,179)" stroke-linejoin="round" d="M 6973,1629 L 6973,10424"/>
 <path fill="none" stroke="rgb(179,179,179)" stroke-linejoin="round" d="M 9281,1629 L 9281,10424"/>
 <path fill="none" stroke="rgb(179,179,179)" stroke-linejoin="round" d="M 11589,1629 L 11589,10424"/>
 <path fill="none" stroke="rgb(179,179,179)" stroke-linejoin="round" d="M 13897,1629 L 13897,10424"/>
 <path fill="none" stroke="rgb(179,179,179)" stroke-linejoin="round" d="M 16205,1629 L 16205,10424"/>
 <path fill="none" stroke="rgb(179,179,179)" stroke-linejoin="round" d="M 18513,1629 L 18513,10424"/>
 <path fill="none" stroke="rgb(179,179,179)" stroke-linejoin="round" d="M 20822,1629 L 20822,10424"/>
 <path fill="none" stroke="rgb(179,179,179)" stroke-linejoin="round" d="M 20822,10424 L 2357,10424"/>
 <path fill="none" stroke="rgb(179,179,179)" stroke-linejoin="round" d="M 20822,9446 L 2357,9446"/>
 <path fill="none" stroke="rgb(179,179,179)" stroke-linejoin="round" d="M 20822,8469 L 2357,8469"/>
 <path fill="none" stroke="rgb(179,179,179)" stroke-linejoin="round" d="M 20822,7492 L 2357,7492"/>
 <path fill="none" stroke="rgb(179,179,179)" stroke-linejoin="round" d="M 20822,6514 L 2357,6514"/>
 <path fill="none" stroke="rgb(179,179,179)" stroke-linejoin="round" d="M 20822,5538 L 2357,5538"/>
 <path fill="none" stroke="rgb(179,179,179)" stroke-linejoin="round" d="M 20822,4561 L 2357,4561"/>
 <path fill="none" stroke="rgb(179,179,179)" stroke-linejoin="round" d="M 20822,3583 L 2357,3583"/>
 <path fill="none" stroke="rgb(179,179,179)" stroke-linejoin="round" d="M 20822,2606 L 2357,2606"/>
 <path fill="none" stroke="rgb(179,179,179)" stroke-linejoin="round" d="M 20822,1629 L 2357,1629"/>
 <path fill="none" stroke="rgb(179,179,179)" stroke-linejoin="round" d="M 2357,10574 L 2357,10424"/>
 <path fill="none" stroke="rgb(179,179,179)" stroke-linejoin="round" d="M 2357,10574 L 2357,10424"/>
 <path fill="none" stroke="rgb(179,179,179)" stroke-linejoin="round" d="M 4665,10574 L 4665,10424"/>
 <path fill="none" stroke="rgb(179,179,179)" stroke-linejoin="round" d="M 4665,10574 L 4665,10424"/>
 <path fill="none" stroke="rgb(179,179,179)" stroke-linejoin="round" d="M 6973,10574 L 6973,10424"/>
 <path fill="none" stroke="rgb(179,179,179)" stroke-linejoin="round" d="M 6973,10574 L 6973,10424"/>
 <path fill="none" stroke="rgb(179,179,179)" stroke-linejoin="round" d="M 9281,10574 L 9281,10424"/>
 <path fill="none" stroke="rgb(179,179,179)" stroke-linejoin="round" d="M 9281,10574 L 9281,10424"/>
 <path fill="none" stroke="rgb(179,179,179)" stroke-linejoin="round" d="M 11589,10574 L 11589,10424"/>
 <path fill="none" stroke="rgb(179,179,179)" stroke-linejoin="round" d="M 11589,10574 L 11589,10424"/>
 <path fill="none" stroke="rgb(179,179,179)" stroke-linejoin="round" d="M 13897,10574 L 13897,10424"/>
 <path fill="none" stroke="rgb(179,179,179)" stroke-linejoin="round" d="M 13897,10574 L 13897,10424"/>
 <path fill="none" stroke="rgb(179,179,179)" stroke-linejoin="round" d="M 16205,10574 L 16205,10424"/>
 <path fill="none" stroke="rgb(179,179,179)" stroke-linejoin="round" d="M 16205,10574 L 16205,10424"/>
 <path fill="none" stroke="rgb(179,179,179)" stroke-linejoin="round" d="M 18513,10574 L 18513,10424"/>
 <path fill="none" stroke="rgb(179,179,179)" stroke-linejoin="round" d="M 18513,10574 L 18513,10424"/>
 <path fill="none" stroke="rgb(179,179,179)" stroke-linejoin="round" d="M 20822,10574 L 20822,10424"/>
 <path fill="none" stroke="rgb(179,179,179)" stroke-linejoin="round" d="M 20822,10574 L 20822,10424"/>
 <path fill="none" stroke="rgb(179,179,179)" stroke-linejoin="round" d="M 2357,10424 L 20822,10424"/>
 <path fill="none" stroke="rgb(179,179,179)" stroke-linejoin="round" d="M 2207,10424 L 2357,10424"/>
 <path fill="none" stroke="rgb(179,179,179)" stroke-linejoin="round" d="M 2207,10424 L 2357,10424"/>
 <path fill="none" stroke="rgb(179,179,179)" stroke-linejoin="round" d="M 2207,9446 L 2357,9446"/>
 <path fill="none" stroke="rgb(179,179,179)" stroke-linejoin="round" d="M 2207,9446 L 2357,9446"/>
 <path fill="none" stroke="rgb(179,179,179)" stroke-linejoin="round" d="M 2207,8469 L 2357,8469"/>
 <path fill="none" stroke="rgb(179,179,179)" stroke-linejoin="round" d="M 2207,8469 L 2357,8469"/>
 <path fill="none" stroke="rgb(179,179,179)" stroke-linejoin="round" d="M 2207,7492 L 2357,7492"/>
 <path fill="none" stroke="rgb(179,179,179)" stroke-linejoin="round" d="M 2207,7492 L 2357,7492"/>
 <path fill="none" stroke="rgb(179,179,179)" stroke-linejoin="round" d="M 2207,6514 L 2357,6514"/>
 <path fill="none" stroke="rgb(179,179,179)" stroke-linejoin="round" d="M 2207,6514 L 2357,6514"/>
 <path fill="none" stroke="rgb(179,179,179)" stroke-linejoin="round" d="M 2207,5538 L 2357,5538"/>
 <path fill="none" stroke="rgb(179,179,179)" stroke-linejoin="round" d="M 2207,5538 L 2357,5538"/>
 <path fill="none" stroke="rgb(179,179,179)" stroke-linejoin="round" d="M 2207,4561 L 2357,4561"/>
 <path fill="none" stroke="rgb(179,179,179)" stroke-linejoin="round" d="M 2207,4561 L 2357,4561"/>
 <path fill="none" stroke="rgb(179,179,179)" stroke-linejoin="round" d="M 2207,3583 L 2357,3583"/>
 <path fill="none" stroke="rgb(179,179,179)" stroke-linejoin="round" d="M 2207,3583 L 2357,3583"/>
 <path fill="none" stroke="rgb(179,179,179)" stroke-linejoin="round" d="M 2207,2606 L 2357,2606"/>
 <path fill="none" stroke="rgb(179,179,179)" stroke-linejoin="round" d="M 2207,2606 L 2357,2606"/>
 <path fill="none" stroke="rgb(179,179,179)" stroke-linejoin="round" d="M 2207,1629 L 2357,1629"/>
 <path fill="none" stroke="rgb(179,179,179)" stroke-linejoin="round" d="M 2207,1629 L 2357,1629"/>
 <path fill="none" stroke="rgb(179,179,179)" stroke-linejoin="round" d="M 2357,10424 L 2357,1629"/>
 <path fill="none" stroke="rgb(0,69,134)" stroke-width="80" stroke-linejoin="round" d="M 2357,2782 L 2424,2807 2492,2832 2560,2857 2628,2882 2696,2908 2764,2933 2832,2959 2900,2985 2968,3012 3035,3039 3103,3067 3171,3095 3239,3123 3307,3152 3375,3182 3443,3213 3511,3244 3579,3276 3646,3309 3714,3343 3782,3378 3850,3413 3918,3450 3986,3488 4054,3527 4122,3567 4190,3608 4257,3651 4325,3695 4393,3740 4461,3786 4529,3834 4597,3884 4665,3935 4733,3988 4801,4042 4868,4097 4936,4154 5004,4212 5072,4271 5140,4332 5208,4393 5276,4455 5344,4518 5412,4582 5479,4646 5547,4711 5615,4776 5683,4842 5751,4908 5819,4974 5887,5040 5955,5107 6023,5173 6090,5239 6158,5305 6226,5371 6294,5436 6362,5500 6430,5564 6498,5628 6566,5691 6634,5752 6701,5813 6769,5873 6837,5932 6905,5990 6973,6046 7041,6101 7109,6154 7177,6206 7245,6257 7312,6306 7380,6354 7448,6400 7516,6445 7584,6489 7652,6530 7720,6571 7788,6609 7856,6646 7923,6681 7991,6715 8059,6747 8127,6777 8195,6806 8263,6832 8331,6857 8399,6880 8467,6901 8534,6921 8602,6938 8670,6953 8738,6967 8806,6979 8874,6988 8942,6996 9010,7001 9078,7005 9145,7006 9213,7006 9281,7003 9349,6998 9417,6991 9485,6982 9553,6971 9621,6959 9689,6945 9756,6930 9824,6914 9892,6896 9960,6877 10028,6857 10096,6837 10164,6816 10232,6794 10300,6772 10367,6750 10435,6727 10503,6705 10571,6682 10639,6660 10706,6638 10774,6616 10842,6595 10910,6575 10977,6555 11045,6536 11113,6519 11181,6503 11249,6487 11317,6474 11385,6462 11453,6451 11521,6443 11589,6436 11656,6431 11724,6429 11792,6428 11860,6429 11928,6431 11996,6435 12064,6441 12132,6448 12200,6456 12267,6466 12335,6477 12403,6489 12471,6501 12539,6515 12607,6529 12675,6544 12743,6560 12811,6576 12878,6592 12946,6609 13014,6626 13082,6644 13150,6661 13218,6678 13286,6695 13354,6712 13422,6728 13489,6744 13557,6760 13625,6775 13693,6789 13761,6803 13829,6815 13897,6827 13965,6838 14033,6847 14100,6856 14168,6863 14236,6870 14304,6876 14372,6881 14440,6885 14508,6888 14576,6891 14644,6893 14711,6894 14779,6895 14847,6894 14915,6894 14983,6892 15051,6891 15119,6888 15187,6885 15255,6882 15322,6878 15390,6874 15458,6870 15526,6865 15594,6860 15662,6855 15730,6849 15798,6844 15866,6838 15933,6832 16001,6826 16069,6820 16137,6813 16205,6807 16273,6801 16341,6795 16409,6789 16477,6783 16544,6778 16612,6772 16680,6767 16748,6762 16816,6757 16884,6753 16952,6749 17020,6745 17088,6741 17155,6738 17223,6736 17291,6734 17359,6732 17427,6731 17495,6730 17563,6730 17631,6731 17699,6732 17766,6734 17834,6737 17902,6740 17970,6744 18038,6749 18106,6755 18174,6761 18242,6769 18310,6777 18377,6786 18445,6796 18513,6807 18581,6819 18649,6833 18717,6847 18785,6862 18853,6877 18921,6894 18988,6912 19056,6930 19124,6949 19192,6969 19260,6989 19328,7010 19396,7032 19464,7055 19532,7078 19599,7102 19667,7126 19735,7150 19803,7175 19871,7201 19939,7227 20007,7253 20075,7280 20143,7307 20210,7335 20278,7362 20346,7390 20414,7418 20482,7446 20550,7475 20618,7503 20686,7532 20754,7561 20822,7589"/>
 <path fill="rgb(0,69,134)" stroke="none" d="M 2232,2657 L 2232,2907 2482,2907 2482,2657 2232,2657 Z"/>
 <path fill="none" stroke="rgb(0,69,134)" stroke-linejoin="round" d="M 2232,2657 L 2232,2907 2482,2907 2482,2657 2232,2657 Z"/>
 <path fill="rgb(0,69,134)" stroke="none" d="M 4540,3810 L 4540,4060 4790,4060 4790,3810 4540,3810 Z"/>
 <path fill="none" stroke="rgb(0,69,134)" stroke-linejoin="round" d="M 4540,3810 L 4540,4060 4790,4060 4790,3810 4540,3810 Z"/>
 <path fill="rgb(0,69,134)" stroke="none" d="M 6848,5921 L 6848,6170 7098,6170 7098,5921 6848,5921 Z"/>
 <path fill="none" stroke="rgb(0,69,134)" stroke-linejoin="round" d="M 6848,5921 L 6848,6170 7098,6170 7098,5921 6848,5921 Z"/>
 <path fill="rgb(0,69,134)" stroke="none" d="M 9156,6878 L 9156,7128 9406,7128 9406,6878 9156,6878 Z"/>
 <path fill="none" stroke="rgb(0,69,134)" stroke-linejoin="round" d="M 9156,6878 L 9156,7128 9406,7128 9406,6878 9156,6878 Z"/>
 <path fill="rgb(0,69,134)" stroke="none" d="M 11464,6311 L 11464,6561 11714,6561 11714,6311 11464,6311 Z"/>
 <path fill="none" stroke="rgb(0,69,134)" stroke-linejoin="round" d="M 11464,6311 L 11464,6561 11714,6561 11714,6311 11464,6311 Z"/>
 <path fill="rgb(0,69,134)" stroke="none" d="M 13772,6702 L 13772,6952 14022,6952 14022,6702 13772,6702 Z"/>
 <path fill="none" stroke="rgb(0,69,134)" stroke-linejoin="round" d="M 13772,6702 L 13772,6952 14022,6952 14022,6702 13772,6702 Z"/>
 <path fill="rgb(0,69,134)" stroke="none" d="M 16080,6682 L 16080,6932 16330,6932 16330,6682 16080,6682 Z"/>
 <path fill="none" stroke="rgb(0,69,134)" stroke-linejoin="round" d="M 16080,6682 L 16080,6932 16330,6932 16330,6682 16080,6682 Z"/>
 <path fill="rgb(0,69,134)" stroke="none" d="M 18388,6682 L 18388,6932 18638,6932 18638,6682 18388,6682 Z"/>
 <path fill="none" stroke="rgb(0,69,134)" stroke-linejoin="round" d="M 18388,6682 L 18388,6932 18638,6932 18638,6682 18388,6682 Z"/>
 <path fill="rgb(0,69,134)" stroke="none" d="M 20697,7464 L 20697,7714 20947,7714 20947,7464 20697,7464 Z"/>
 <path fill="none" stroke="rgb(0,69,134)" stroke-linejoin="round" d="M 20697,7464 L 20697,7714 20947,7714 20947,7464 20697,7464 Z"/>
 <text class="TextShape"><tspan class="TextParagraph" font-family="Liberation Sans" font-size="353px" font-weight="400"><tspan class="TextPosition" x="2264" y="10992"/><tspan class="TextPosition" x="2264" y="10992"><tspan fill="rgb(0,0,0)" stroke="none">1</tspan></tspan></tspan></text>
 <text class="TextShape"><tspan class="TextParagraph" font-family="Liberation Sans" font-size="353px" font-weight="400"><tspan class="TextPosition" x="4572" y="10992"/><tspan class="TextPosition" x="4572" y="10992"><tspan fill="rgb(0,0,0)" stroke="none">2</tspan></tspan></tspan></text>
 <text class="TextShape"><tspan class="TextParagraph" font-family="Liberation Sans" font-size="353px" font-weight="400"><tspan class="TextPosition" x="6880" y="10992"/><tspan class="TextPosition" x="6880" y="10992"><tspan fill="rgb(0,0,0)" stroke="none">3</tspan></tspan></tspan></text>
 <text class="TextShape"><tspan class="TextParagraph" font-family="Liberation Sans" font-size="353px" font-weight="400"><tspan class="TextPosition" x="9188" y="10992"/><tspan class="TextPosition" x="9188" y="10992"><tspan fill="rgb(0,0,0)" stroke="none">4</tspan></tspan></tspan></text>
 <text class="TextShape"><tspan class="TextParagraph" font-family="Liberation Sans" font-size="353px" font-weight="400"><tspan class="TextPosition" x="11497" y="10992"/><tspan class="TextPosition" x="11497" y="10992"><tspan fill="rgb(0,0,0)" stroke="none">5</tspan></tspan></tspan></text>
 <text class="TextShape"><tspan class="TextParagraph" font-family="Liberation Sans" font-size="353px" font-weight="400"><tspan class="TextPosition" x="13805" y="10992"/><tspan class="TextPosition" x="13805" y="10992"><tspan fill="rgb(0,0,0)" stroke="none">6</tspan></tspan></tspan></text>
 <text class="TextShape"><tspan class="TextParagraph" font-family="Liberation Sans" font-size="353px" font-weight="400"><tspan class="TextPosition" x="16113" y="10992"/><tspan class="TextPosition" x="16113" y="10992"><tspan fill="rgb(0,0,0)" stroke="none">7</tspan></tspan></tspan></text>
 <text class="TextShape"><tspan class="TextParagraph" font-family="Liberation Sans" font-size="353px" font-weight="400"><tspan class="TextPosition" x="18421" y="10992"/><tspan class="TextPosition" x="18421" y="10992"><tspan fill="rgb(0,0,0)" stroke="none">8</tspan></tspan></tspan></text>
 <text class="TextShape"><tspan class="TextParagraph" font-family="Liberation Sans" font-size="353px" font-weight="400"><tspan class="TextPosition" x="20730" y="10992"/><tspan class="TextPosition" x="20730" y="10992"><tspan fill="rgb(0,0,0)" stroke="none">9</tspan></tspan></tspan></text>
 <text class="TextShape"><tspan class="TextParagraph" font-family="Liberation Sans" font-size="353px" font-weight="400"><tspan class="TextPosition" x="1737" y="10545"/><tspan class="TextPosition" x="1737" y="10545"><tspan fill="rgb(0,0,0)" stroke="none">16</tspan></tspan></tspan></text>
 <text class="TextShape"><tspan class="TextParagraph" font-family="Liberation Sans" font-size="353px" font-weight="400"><tspan class="TextPosition" x="1446" y="9567"/><tspan class="TextPosition" x="1446" y="9567"><tspan fill="rgb(0,0,0)" stroke="none">16.5</tspan></tspan></tspan></text>
 <text class="TextShape"><tspan class="TextParagraph" font-family="Liberation Sans" font-size="353px" font-weight="400"><tspan class="TextPosition" x="1737" y="8590"/><tspan class="TextPosition" x="1737" y="8590"><tspan fill="rgb(0,0,0)" stroke="none">17</tspan></tspan></tspan></text>
 <text class="TextShape"><tspan class="TextParagraph" font-family="Liberation Sans" font-size="353px" font-weight="400"><tspan class="TextPosition" x="1446" y="7613"/><tspan class="TextPosition" x="1446" y="7613"><tspan fill="rgb(0,0,0)" stroke="none">17.5</tspan></tspan></tspan></text>
 <text class="TextShape"><tspan class="TextParagraph" font-family="Liberation Sans" font-size="353px" font-weight="400"><tspan class="TextPosition" x="1737" y="6635"/><tspan class="TextPosition" x="1737" y="6635"><tspan fill="rgb(0,0,0)" stroke="none">18</tspan></tspan></tspan></text>
 <text class="TextShape"><tspan class="TextParagraph" font-family="Liberation Sans" font-size="353px" font-weight="400"><tspan class="TextPosition" x="1446" y="5658"/><tspan class="TextPosition" x="1446" y="5658"><tspan fill="rgb(0,0,0)" stroke="none">18.5</tspan></tspan></tspan></text>
 <text class="TextShape"><tspan class="TextParagraph" font-family="Liberation Sans" font-size="353px" font-weight="400"><tspan class="TextPosition" x="1737" y="4681"/><tspan class="TextPosition" x="1737" y="4681"><tspan fill="rgb(0,0,0)" stroke="none">19</tspan></tspan></tspan></text>
 <text class="TextShape"><tspan class="TextParagraph" font-family="Liberation Sans" font-size="353px" font-weight="400"><tspan class="TextPosition" x="1446" y="3703"/><tspan class="TextPosition" x="1446" y="3703"><tspan fill="rgb(0,0,0)" stroke="none">19.5</tspan></tspan></tspan></text>
 <text class="TextShape"><tspan class="TextParagraph" font-family="Liberation Sans" font-size="353px" font-weight="400"><tspan class="TextPosition" x="1737" y="2726"/><tspan class="TextPosition" x="1737" y="2726"><tspan fill="rgb(0,0,0)" stroke="none">20</tspan></tspan></tspan></text>
 <text class="TextShape"><tspan class="TextParagraph" font-family="Liberation Sans" font-size="353px" font-weight="400"><tspan class="TextPosition" x="1446" y="1749"/><tspan class="TextPosition" x="1446" y="1749"><tspan fill="rgb(0,0,0)" stroke="none">20.5</tspan></tspan></tspan></text>
 <text class="TextShape"><tspan class="TextParagraph" font-family="Liberation Sans" font-size="459px" font-weight="400"><tspan class="TextPosition" x="8016" y="942"/><tspan class="TextPosition" x="8016" y="942"><tspan fill="rgb(0,0,0)" stroke="none">Error Rate - Argumentative</tspan></tspan></tspan></text>
 <text class="TextShape"><tspan class="TextParagraph" font-family="Liberation Sans" font-size="318px" font-weight="400"><tspan class="TextPosition" x="9765" y="11704"/><tspan class="TextPosition" x="9765" y="11704"><tspan fill="rgb(0,0,0)" stroke="none">Training Set (x10%)</tspan></tspan></tspan></text>
 <text class="TextShape"><tspan class="TextParagraph" font-family="Liberation Sans" font-size="318px" font-weight="400"><tspan class="TextPosition" x="845" y="7283" transform="translate(845,7283) rotate(-90) translate(-845,-7283)"/><tspan class="TextPosition" x="845" y="7283" transform="translate(845,7283) rotate(-90) translate(-845,-7283)"><tspan fill="rgb(0,0,0)" stroke="none">Error Rate (%)</tspan></tspan></tspan></text>
</svg>